<?xml version="1.0" standalone="no"?>
<!DOCTYPE svg PUBLIC "-//W3C//DTD SVG 1.1//EN" "http://www.w3.org/Graphics/SVG/1.1/DTD/svg11.dtd" >
<!--
2013-9-30: Created.
-->
<svg>
<metadata>
Created by iconfont
</metadata>
<defs>

<font id="iconfont" horiz-adv-x="1024" >
  <font-face
    font-family="iconfont"
    font-weight="500"
    font-stretch="normal"
    units-per-em="1024"
    ascent="896"
    descent="-128"
  />
    <missing-glyph />
    
    <glyph glyph-name="refresh" unicode="&#58905;" d="M1010.28859335 800.14233714l0-291.07376356c0-25.00905757-15.91591367-40.92497123-40.92497124-40.92497123l-291.07376355 0c-15.91591367 0-29.56261603 9.09314389-38.6534309 25.00905756-6.82393373 15.91591367-4.55239339 31.83182621 9.09197995 45.47736462l90.95589433 88.684354c-63.66365355 59.13454592-138.71527709 88.69599687-227.39963108 88.69599686-43.20698937 0-86.41397874-9.10478677-129.62096811-25.02070044-43.20698937-18.18628893-77.30919197-43.20698937-104.60026766-72.76844032-29.56145095-27.2910757-54.58215253-61.39327829-72.76844032-104.60026766-34.11384547-84.14360349-34.11384547-175.09833273 0-259.24193622 18.18628893-43.20815331 43.20698937-77.30919197 72.76844032-104.60026766 27.2910757-29.56261603 61.39327829-54.58331648 104.60026766-72.76844032 43.20698937-15.91591367 86.41397874-25.02070045 129.62096811-25.02070044 52.30013326 0 100.05835207 11.37516317 145.53688178 34.11268039 47.75938275 20.46830706 86.41514269 52.30013326 115.97426574 95.50828771 9.09430898 4.55239339 13.64670237 6.82160469 15.91591367 6.8216047 6.82393373 0 11.37632711-2.26921131 15.91591368-6.8216047l88.6983259-88.68435398c4.53842261-4.55239339 6.81112576-9.09430898 6.81112576-13.64670237 0-2.26921131-2.2715392-6.82160469-4.54075051-13.64670237-50.03092309-59.12173795-106.88344974-104.60026766-172.82679353-134.16055466-61.39327829-29.56261603-131.89250731-45.47852857-211.4837174-45.47852857-70.49806507 0-136.44373675 13.63505949-193.29626454 38.6534309C253.04273351-45.78787554999997 198.47222499-9.40365483000005 159.81762901 31.532959290000008c-40.93661411 38.6534309-77.32083485 93.2251045-106.88228579 159.17194126-52.30013326 115.97426574-52.30013326 270.61593429 0 386.59136512 29.56145095 65.94567168 65.94567168 120.51618133 106.88228579 159.17077618 38.65459598 40.93661411 93.2251045 77.32083485 159.17077618 106.8822858 56.85252779 25.02070045 122.79819947 38.65459598 193.29626454 38.65459598 63.67413248 0 125.06857472-11.36351915 184.19031267-34.1022026 61.40492117-25.02070045 115.97659477-59.12290304 159.18358414-102.32989241l84.14360349 84.13196061c11.36351915 11.37516317 27.29224078 15.91591367 45.47852856 9.10478677C1001.19544832 829.70378923 1010.28859335 816.05825081 1010.28859335 800.14233714z"  horiz-adv-x="1024" />

    
    <glyph glyph-name="cross" unicode="&#58979;" d="M547.67573878 438.40315081l-0.1337957 412.64951403c-0.01987117 20.71050096-16.81585667 36.96203215-37.51708485 36.29835214-20.70122818-0.67162716-37.47071967-18.00412112-37.46012257-38.71594638l0.13909425-410.23192109-426.38409776 0c-20.70520241-0.66765294-37.47734381-15.58387696-37.45879697-36.29570353 0.01589693-20.7157995 16.81188244-39.38359932 37.51708484-38.71594639l426.34833098 0 0.13909424-442.96018263c0.01589693-20.7157995 16.8079082-36.96335646 37.51311062-36.29570353 20.70122818 0.6636787 37.47469391 18.00014689 37.45879697 38.71462207l-0.13512003 440.53993849 426.37747491 0c20.70785104 0.67030286 37.47734381 18.00412112 37.45879698 38.71594639-0.01589693 20.71447519-16.81320675 36.96600509-37.51311062 36.29570352L547.67573878 438.40315081 547.67573878 438.40315081zM547.67573878 438.40315081"  horiz-adv-x="1024" />

    
    <glyph glyph-name="mod-password" unicode="&#58916;" d="M350.334-128c-93.643 0-181.663 36.448-247.844 102.629-136.625 136.8-136.619 359.229 0 495.848 66.181 66.181 154.201 102.629 247.844 102.629 55.7 0 110.859-13.74 160.967-39.925L833.41 855.289c43.51 43.51 114.307 43.522 157.834 0.029l0 0c21.122-21.068 32.755-49.096 32.756-78.92 0-29.824-11.633-57.852-32.755-78.921l-76.494-76.493 76.522-76.522c43.522-43.523 43.522-114.34 0.001-157.863-21.093-21.092-49.125-32.707-78.933-32.707-29.809 0-57.841 11.615-78.932 32.706l-76.522 76.522-90.886-90.886c23.087-47.813 34.812-97.988 34.886-149.477 0.087-93.694-36.39-181.81-102.71-248.129C531.996-91.55200000000002 443.977-128 350.334-128zM350.334 509.106c-76.548 0-148.496-29.791-202.589-83.884C36.064 313.54100000000005 36.07 131.70100000000002 147.759 19.870000000000005 201.838-34.208999999999946 273.786-64 350.334-64s148.496 29.791 202.59 83.884c54.216 54.216 84.035 126.237 83.964 202.799-0.069 48.215-12.854 95.27-37.999 139.84l-11.942 21.167L756.888 553.63l121.777-121.777c9.003-9.003 20.963-13.961 33.677-13.961 12.713 0 24.674 4.958 33.678 13.962 18.568 18.569 18.568 48.784-0.001 67.354L824.241 620.983 946.02 742.76c9.025 9.003 13.98 20.939 13.98 33.637s-4.956 24.633-13.953 33.607l-0.028 0.029c-18.569 18.568-48.784 18.569-67.354 0L521.44 452.81l-21.533 13.272C454.243 494.229 402.521 509.106 350.334 509.106zM350.222 32.85000000000002c-51.316 0-100.555 19.785-135.109 54.293-74.568 74.759-74.555 196.187-0.015 270.726 36.087 36.088 84.115 55.962 135.236 55.962s99.148-19.874 135.236-55.962c36.138-36.138 56.041-84.194 56.041-135.315 0-51.218-19.913-99.284-56.071-135.345-34.612-34.521-83.898-54.334-135.22-54.358C350.288 32.85000000000002 350.254 32.85000000000002 350.222 32.85000000000002zM350.334 349.83000000000004c-34.026 0-65.981-13.217-89.981-37.216-49.618-49.618-49.605-130.47 0.029-180.23 47.844-47.78 131.96-47.736 179.963 0.139l0 0c24.031 23.967 37.265 55.94 37.265 90.03 0 34.026-13.245 66.011-37.295 90.062C416.316 336.61300000000006 384.36 349.83000000000004 350.334 349.83000000000004z"  horiz-adv-x="1024" />

    
    <glyph glyph-name="language" unicode="&#60383;" d="M723.60846222 286.13290667l163.84 0q13.64119666 63.73982777 13.64119666 97.86709333t-13.64119666 97.86709333l-163.84 0q6.84487111-47.76846222 6.84487111-97.86709333t-6.84487111-97.86709333zM637.14948779 17.629487789999985q138.79068445 45.53538333 211.60846222 172.96649443l-143.35393223 0q-22.76769223-91.02222222-68.25452999-172.96649443zM625.78991445 286.13290667q6.84487111 47.76846222 6.84487112 97.86709333t-6.84487112 97.86709333l-227.57982776 0q-6.84487111-47.76846222-6.84487112-97.86709333t6.84487112-97.86709333l227.57982776 0zM512-2.856581119999987q63.73982777 93.30384555 93.30384555 193.40401778l-186.60769224 0q29.56401778-100.14871666 93.30384555-193.40401778zM318.59598222 577.40401778q22.76769223 91.02222222 68.25452999 172.96649443-138.79068445-45.53538333-211.60846222-172.96649443l143.35393223 0zM175.24204999 190.59598222q72.81777778-127.43111111 211.60846222-172.96649443-45.53538333 81.94427221-68.25452999 172.96649443l-143.35393223 0zM136.55153778 286.13290667l163.84 0q-6.84487111 47.76846222-6.84487111 97.86709333t6.84487111 97.86709333l-163.84 0q-13.64119666-63.73982777-13.64119666-97.86709333t13.64119666-97.86709333zM512 770.85658112q-63.73982777-93.30384555-93.30384555-193.40401778l186.60769224 0q-29.56401778 100.14871666-93.30384555 193.40401778zM848.80649443 577.40401778q-72.81777778 127.43111111-211.60846222 172.96649443 45.53538333-81.94427221 68.25453-172.96649443l143.35393222 0zM512 868.67512889q200.24888889 0 342.4862811-142.23739222t142.23739221-342.4862811-142.23739221-342.4862811-342.4862811-142.23739221-342.4862811 142.23739221-142.23739221 342.4862811 142.23739221 342.4862811 342.4862811 142.23739222z"  horiz-adv-x="1024" />

    
    <glyph glyph-name="terminate" unicode="&#59140;" d="M512-128c-281.6 0-512 230.4-512 512s230.4 512 512 512 512-230.4 512-512S793.6-128 512-128zM512 838.4C262.4 838.4 57.6 633.6 57.6 384s204.8-454.4 454.4-454.4 454.4 204.8 454.4 454.4S761.6 838.4 512 838.4zM320 576l384 0 0-384-384 0 0 384Z"  horiz-adv-x="1024" />

    
    <glyph glyph-name="report-table" unicode="&#59060;" d="M292.69862286 602.8548699L1.44905216 602.8548699l0-582.49797859L292.69862286 20.356890170000042 292.69862286 602.8548699zM219.88477497 93.16957410999999L74.26057102 93.16957410999999 74.26057102 530.04218595l145.62420395 0L219.88477497 93.16957410999999zM656.77834354 894.10211271L365.51130681 894.10211271l0-873.74522254 291.26820068 0L656.77950749 894.10211271zM583.96565959 93.16957410999999L438.32282681 93.16957410999999 438.32282681 821.29059271l145.64399673 0L583.96682354 93.16957410999999zM729.58869845 748.47790877l0-728.1210186 291.2484079 0L1020.83710635 748.47790877 729.58869845 748.47790877zM948.0244224 93.16957410999999L802.4013824 93.16957410999999l0 582.49681466 145.62303886 0L948.0244224 93.16957410999999zM1.44905216-52.45230079999999l1019.38805419 0 0-72.81268395-1019.38805419 0 0 72.81268395Z"  horiz-adv-x="1024" />

    
    <glyph glyph-name="scale-max-1" unicode="&#58908;" d="M916 516c-26.4 0-48 21.6-48 48L868 672.8 613.6 418.4c-18.4-18.4-48.8-18.4-68 0-18.4 18.4-18.4 48.8 0 68L800 740 692 740c-26.4 0-48 21.6-48 48 0 26.4 21.6 48 48 48l224 0c26.4 0 48-21.6 48-48l0-224C964 537.6 942.4 516 916 516zM231.2 36l108.8 0c26.4 0 48-21.6 48-48s-21.6-48-48-48l-224 0c-26.4 0-48 21.6-48 48l0 224c0 26.4 21.6 48 48 48 26.4 0 48-21.6 48-48L164 104l253.6 253.6c18.4 18.4 48.8 18.4 68 0 18.4-18.4 18.4-48.8 0-68L231.2 36z"  horiz-adv-x="1024" />

    
    <glyph glyph-name="scale-normal-1" unicode="&#58909;" d="M949.6 753.6L696 500l108 0c26.4 0 48-21.6 48-48 0-26.4-21.6-48-48-48l-224 0c-26.4 0-48 21.6-48 48l0 224c0 26.4 21.6 48 48 48 26.4 0 48-21.6 48-48l0-108.8 254.4 254.4c18.4 18.4 48.8 18.4 68 0C968.8 803.2 968.8 772.8 949.6 753.6zM452 52c-26.4 0-48 21.6-48 48L404 208l-253.6-253.6c-18.4-18.4-48.8-18.4-68 0-18.4 18.4-18.4 48.8 0 68l254.4 254.4L228 276.79999999999995c-26.4 0-48 21.6-48 48s21.6 48 48 48l224 0c26.4 0 48-21.6 48-48l0-224C500 73.60000000000002 478.4 52 452 52z"  horiz-adv-x="1024" />

    
    <glyph glyph-name="tianjiachengyuan" unicode="&#58921;" d="M992.248062 0.032022 896.224056 0.032022 896.224056-95.991984C896.224056-113.660401 881.900475-127.999986 864.216054-127.999986 846.531633-127.999986 832.208052-113.660401 832.208052-95.991984L832.208052 0.032022 736.184046 0.032022C718.499625 0.032022 704.176044 14.355603 704.176044 32.040024 704.176044 49.724445 718.499625 64.048026 736.184046 64.048026L832.208052 64.048026 832.208052 160.072032C832.208052 177.756453 846.531633 192.080034 864.216054 192.080034 881.900475 192.080034 896.224056 177.756453 896.224056 160.072032L896.224056 64.048026 992.248062 64.048026C1009.932483 64.048026 1024.256064 49.724445 1024.256064 32.040024 1024.256064 14.355603 1009.932483 0.032022 992.248062 0.032022ZM681.290323 228.393112 766.335584 188.607166 750.507627 124.719194 654.563641 170.218569C634.302576 179.532897 620.331083 198.689687 617.706427 220.855228 615.08177 242.988761 624.172043 264.898239 641.68042 278.677684 710.353588 332.755203 735.95999 450.560654 735.95999 512.112042L735.95999 672.072032C735.95999 740.42512 620.683171 831.98401 511.983996 831.98401 404.229057 831.98401 287.79995 738.952752 287.79995 672.072032L287.79995 512.112042C287.79995 449.616418 318.783696 332.259079 385.28032 278.869732 402.580645 264.994263 411.462866 243.148801 408.742186 221.1433 406.037509 199.137799 392.130033 180.061029 371.980995 170.810717L90.854714 38.153553C83.236809 34.648676 64.128032 26.646676 64.128032 1.200314L64.128032-63.743922 768.192048-63.727918 768.192048-127.727918 64.08002-127.727918C28.75919-127.727918 0.112028-99.09676 0.112028-63.743922L0.112028 32.312092C0.112028 67.792962 64.08002 96.296088 64.08002 96.296088L345.206302 228.953252C255.67992 300.811217 223.783946 442.22257 223.783946 512.112042L223.783946 672.072032C223.783946 778.018519 370.636659 896.000014 511.983996 896.000014 653.315329 896.000014 799.975994 778.018519 799.975994 672.072032L799.975994 512.112042C799.975994 435.276833 769.968492 298.186561 681.290323 228.393112Z"  horiz-adv-x="1025" />

    
    <glyph glyph-name="scale-max" unicode="&#59220;" d="M182.06492445 781.93891555l144.28842666 0.58140445c21.33560889-0.53248 41.12611555 14.24839111 44.35968 39.43879111v27.20426667c-0.54272 21.37429333-18.16120889 39.04739555-39.50136889 39.52298667l-275.50947555-1.63043556c-0.40732445 0.03982222-0.68152889 0.19342222-1.04789334 0.19342222l-19.32515555 0.42894222c-10.66780445 0.25713778-20.22058667-3.91623111-27.03587556-10.83505778-6.91882667-6.87331555-9.47086222-16.47274667-9.18755555-27.20426666l2.05710222-19.36384c0-0.38570667-1.4336-0.63829333-1.4336-1.06951111l1.07064889-276.85888c0.46876445-21.33560889 18.10090667-34.13902222 39.50023111-34.61802667h28.70613333c21.33560889-0.46876445 38.28053333 18.10090667 37.80380445 39.41603556l-1.20149334 150.56554666 189.96451556-186.91754666c20.65180445-20.68821333 54.06264889-20.68821333 74.71786666 0 20.58922667 20.69617778 20.58922667 54.13546667 0 74.84529778l-188.22712888 186.3168zM1002.88967111-56.467911110000045l-1.10933333 272.59676444c-0.54272 21.31740445-18.16348445 34.07644445-39.50136889 34.54748445l-27.13941334 0.04209777c-21.27416889 0.48810667-38.28053333-18.14186667-37.74236444-39.47747555l1.20149334-147.33198222-189.96451556 188.13610667c-20.65180445 20.69617778-54.02055111 20.69617778-74.67576889 0-20.62336-20.68821333-20.62336-54.12864 0-74.82481778l189.94062222-187.99160889-144.09500444-0.58140445c-21.33560889 0.47786667-41.08629333-12.63502222-44.36195556-37.82997333v-27.20426667c0.54272-21.37429333 18.23061333-39.04853333 39.50136889-39.58670222l271.98464 1.65319111c0.42894222 0 0.68039111-0.17066667 1.09795556-0.17066667l19.27850666-0.46876444c10.66666667-0.25713778 20.28088889 3.91736889 27.09504 10.86236444 6.95978667 6.81187555 9.44128 16.44430222 9.23192889 27.17923556l-2.11740444 19.32515556c-0.03754667 0.47786667 1.39605333 0.75207111 1.39605333 1.11729778zM370.22492445 252.05418667000004c-20.62677333 20.69617778-54.06264889 20.69617778-74.68942223 0l-189.98272-186.91527112 1.22424889 148.23424c0.46876445 21.37429333-16.47160889 40.01450667-37.75943111 39.4752h-28.70613333c-21.39591111-0.53248-39.02350222-13.23690667-39.50023112-34.61802666l-1.1104711-274.63566222c0-0.38570667 1.4336-0.63943111 1.4336-1.07064889l-2.05710223-19.32515556c-0.23552-10.73265778 2.2528-20.36963555 9.17048889-27.17923555 6.81187555-6.93703111 16.43292445-11.11608889 27.03587556-10.86122667l19.32629333 0.46876445c0.38570667 0 0.63829333 0.17066667 1.07064889 0.17066666l275.49582222-1.65319111c21.33560889 0.54272 38.98595555 18.20899555 39.50023111 39.58215111v27.20426667c-3.21194667 25.19267555-23.00359111 38.29532445-44.29710222 37.82997333l-145.94275555 0.46876444 189.81205333 187.9916089c20.59605333 20.62336 20.59605333 54.13546667-0.00227556 74.82481777zM634.06762667 520.77909333c20.65180445-20.68821333 54.02055111-20.68821333 74.67576888 0l189.96451556 188.07808-1.22424889-151.71925333c-0.512-21.31512889 16.49891555-39.95192889 37.76056889-39.47747555h27.13941334c21.33788445 0.54272 38.9632 13.29948445 39.50136888 34.61802666l1.09795556 276.92828444c0 0.42894222-1.42108445 0.68152889-1.42108444 1.0706489l2.1037511 19.36384c0.21276445 10.73038222-2.26304 20.33095111-9.23192888 27.20426666-6.81301333 6.91768889-16.43292445 11.09447111-27.08024889 10.79523556l-19.27850667-0.42894222c-0.42894222 0-0.68152889-0.15018667-1.10933333-0.21276445l-275.92476445 1.65319111c-21.33560889-0.49265778-38.9632-18.16348445-39.50023111-39.54346666l-0.06144-27.20426667c3.2768-25.23249778 23.09575111-39.95192889 44.35968-39.47747556l146.41152-0.58026667-188.12131555-186.31793777c-20.69617778-20.61084445-20.69617778-54.04558222-0.06144-74.73607111z"  horiz-adv-x="1024" />

    
    <glyph glyph-name="scale-normal" unicode="&#59221;" d="M393.168 561.744l-1.0112 261.3568c-0.448 20.13973333-17.08586667 32.22933333-37.2864 32.67946667h-27.09973333c-20.13866667 0.448-36.13226667-17.08586667-35.68746667-37.2064l1.13173333-142.1344-179.3248 176.44906666c-19.49226667 19.53173333-51.0336 19.53173333-70.52693333 0-19.43253333-19.53493333-19.43253333-51.1008 0-70.65173333l177.68-175.87733333-136.21013333-0.54613334c-20.13866667 0.5088-38.82026667-13.4464-41.87733334-37.2256v-25.68533333c0.5088-20.17813333 17.1488-36.86186667 37.28746667-37.30346667l260.08106667 1.53386667c0.38613333-0.03733333 0.64853333-0.1824 0.98986666-0.1824l18.24-0.4032c10.0704-0.24106667 19.09333333 3.69813333 25.51786667 10.23253333 6.53226667 6.48853333 8.9408 15.552 8.67306667 25.6832l-1.9424 18.28053334c0.00106667 0.35733333 1.35466667 0.59946667 1.35466666 1.008zM783.1584 181.91893332999996l136.0256 0.54613334c20.13866667-0.44906667 38.7808 11.92853333 41.87733333 35.7056v25.68213333c-0.50986667 20.18346667-17.2096 36.86186667-37.28746666 37.3728l-256.7488-1.5552c-0.4032 0-0.64533333 0.16106667-1.03146667 0.16106667l-18.19946667 0.448c-10.0704 0.24106667-19.14666667-3.70026667-25.57866666-10.25173334-6.5696-6.432-8.9184-15.5296-8.71786667-25.6608l2.0064-18.24c0.0352-0.448-1.31626667-0.70506667-1.31626667-1.05173333l1.05173334-257.3312c0.5088-20.12053333 17.14986667-32.1728 37.28746666-32.6144l25.61813334-0.03946667c20.08213333-0.46186667 36.13226667 17.12533333 35.62986666 37.2704l-1.1328 139.08053334 179.3248-177.60213334c19.4944-19.53493333 50.99626667-19.53493333 70.49066667 0 19.472 19.53066667 19.472 51.09973333 0 70.63253334l-179.30133333 177.45706666zM385.05813333 270.02133332999995c-6.42986667 6.54933333-15.5104 10.4896-25.51786666 10.25066667l-18.24426667-0.448c-0.36906667 0-0.60373333-0.16106667-1.0112-0.16106667l-260.064 1.5552c-20.13973333-0.50986667-36.8032-17.18613333-37.2864-37.3696v-25.6832c3.03253333-23.77813333 21.71413333-36.15146667 41.81973333-35.7056l137.76853334-0.448-179.18186667-177.46133333c-19.4496-19.472-19.4496-51.09973333 0-70.63253333 19.47306667-19.53493333 51.03466667-19.53493333 70.5088 0l179.34613333 176.44586666-1.15093333-139.93066666c-0.448-20.18346667 15.55093333-37.77386667 35.65226667-37.2672h27.09973333c20.19946667 0.5088 36.84266667 12.49386667 37.2864 32.67946666l1.0528 259.25333334c0 0.36906667-1.35146667 0.60906667-1.35146667 1.01226666l1.9424 18.24426667c0.21973333 10.128-2.12586667 19.22666667-8.65706666 25.65653333zM622.3296 516.73706667c6.432-6.5312 15.5104-10.4736 25.56266667-10.18986667l18.19733333 0.4032c0.4032 0 0.64853333 0.1408 1.05173333 0.20266667l260.46933334-1.55413334c20.13866667 0.46293333 36.7808 17.14986667 37.2864 37.32693334l0.06186666 25.6832c-3.0912 23.81973333-21.8016 37.712-41.87733333 37.26826666l-138.2112 0.54506667 177.58186667 175.88586667c19.53066667 19.45066667 19.53066667 51.01866667 0.0576 70.55253333-19.4944 19.53173333-50.99626667 19.53173333-70.4896 0l-179.3248-177.54346667 1.15093333 143.22773334c0.48426667 20.12053333-15.5712 37.712-35.65226667 37.26826666h-25.61813333c-20.13973333-0.5088-36.78293333-12.55786667-37.28746667-32.67946666l-1.03146666-261.41333334c0-0.4032 1.3344-0.64853333 1.3344-1.0112l-1.98293334-18.28053333c-0.2048-10.13226667 2.1408-19.1904 8.71786667-25.6832z"  horiz-adv-x="1024" />

    
    <glyph glyph-name="del" unicode="&#58956;" d="M621.22666667 92.72888889000001c-20.13411555 0-36.40888889 16.27477333-36.40888889 36.40888889L584.81777778 529.6355555499999c0 20.13411555 16.27477333 36.40888889 36.40888889 36.4088889s36.40888889-16.27477333 36.40888888-36.4088889l0-400.49777777C657.63555555 109.00366222000002 641.36078222 92.72888889000001 621.22666667 92.72888889000001zM402.77333333 92.72888889000001c-20.13411555 0-36.40888889 16.27477333-36.40888888 36.40888889L366.36444445 529.6355555499999c0 20.13411555 16.27477333 36.40888889 36.40888888 36.4088889s36.40888889-16.27477333 36.40888889-36.4088889l0-400.49777777C439.18222222 109.00366222000002 422.90744889 92.72888889000001 402.77333333 92.72888889000001zM985.31555555 711.6800000000001l-182.04444444 0L803.27111111 784.49777778c0 60.22030222-48.60586667 109.22666667-108.38926222 109.22666667L329.95555555 893.72444445C269.73525333 893.72444445 220.72888889 844.71808 220.72888889 784.49777778l0-72.81777778L38.68444445 711.6800000000001C18.55032889 711.6800000000001 2.27555555 695.40522667 2.27555555 675.27111111s16.27477333-36.40888889 36.4088889-36.40888889l946.6311111 0c20.13411555 0 36.40888889 16.27477333 36.4088889 36.40888889S1005.44967111 711.6800000000001 985.31555555 711.6800000000001zM293.54666667 784.49777778c0 20.06129778 16.34759111 36.40888889 36.40888888 36.40888889l364.92629334 0C714.83392 820.90666667 730.45333333 804.9231644500001 730.45333333 784.49777778l0-72.81777778L293.54666667 711.6800000000001 293.54666667 784.49777778zM767.00785778-125.72444444999996L257.21059555-125.72444444999996c-60.22030222 0-109.22666667 49.00636445-109.22666666 109.22666667L147.98392889 530.18168889c0 20.09770667 16.31118222 36.40888889 36.40888889 36.40888889s36.40888889-16.31118222 36.40888889-36.40888889L220.80170667-16.49777777999998c0-20.09770667 16.34759111-36.40888889 36.40888888-36.40888889l509.79726223 0c20.09770667 0 36.40888889 16.31118222 36.40888889 36.40888889L803.41674667 528.6889244500001c0 20.09770667 16.27477333 36.40888889 36.40888888 36.40888888s36.40888889-16.31118222 36.4088889-36.40888888L876.23452445-16.49777777999998C876.23452445-76.71807999999999 827.22816-125.72444444999996 767.00785778-125.72444444999996z"  horiz-adv-x="1024" />

    
    <glyph glyph-name="add-info" unicode="&#58954;" d="M978.82352901 52.705881989999966L873.411765 52.705881989999966 873.411765-82.82352901000002C873.411765-107.760941 853.17270599-128 828.23529401-128 803.29788201-128 783.058824-107.760941 783.058824-82.82352901000002L783.058824 52.705881989999966 677.647059 52.705881989999966C652.709647 52.705881989999966 632.47058801 72.94494099999997 632.47058801 97.88235299999997 632.47058801 122.84988198999997 652.709647 143.05882399999996 677.647059 143.05882399999996L783.058824 143.05882399999996 783.058824 248.47058801000003C783.058824 273.43811801000004 803.29788201 293.647059 828.23529401 293.647059 853.17270599 293.647059 873.411765 273.43811801000004 873.411765 248.47058801000003L873.411765 143.05882399999996 978.82352901 143.05882399999996C1003.760941 143.05882399999996 1024 122.84988198999997 1024 97.88235299999997 1024 72.94494099999997 1003.760941 52.705881989999966 978.82352901 52.705881989999966ZM647.52941199 203.29411801000003L225.882353 203.29411801000003C200.944941 203.29411801000003 180.70588199 223.53317600000003 180.70588199 248.47058801000003 180.70588199 273.43811801000004 200.944941 293.647059 225.882353 293.647059L647.52941199 293.647059C672.466824 293.647059 692.70588199 273.43811801000004 692.70588199 248.47058801000003 692.70588199 223.53317600000003 672.466824 203.29411801000003 647.52941199 203.29411801000003ZM647.52941199 564.7058819900001L225.882353 564.7058819900001C200.944941 564.7058819900001 180.70588199 584.944941 180.70588199 609.882353 180.70588199 634.84988201 200.944941 655.088941 225.882353 655.088941L647.52941199 655.088941C672.466824 655.088941 692.70588199 634.84988201 692.70588199 609.882353 692.70588199 584.944941 672.466824 564.7058819900001 647.52941199 564.7058819900001ZM647.52941199 384L225.882353 384C200.944941 384 180.70588199 404.239059 180.70588199 429.17647101 180.70588199 454.144 200.944941 474.352941 225.882353 474.352941L647.52941199 474.352941C672.466824 474.352941 692.70588199 454.144 692.70588199 429.17647101 692.70588199 404.239059 672.466824 384 647.52941199 384ZM828.23529401 353.88235299999997C803.29788201 353.88235299999997 783.058824 374.12141198999996 783.058824 399.088941L783.058824 805.647059 90.352941 805.647059 90.352941-7.529411989999971 647.52941199-7.529411989999971C672.466824-7.529411989999971 692.70588199-27.73835299999996 692.70588199-52.705881989999966 692.70588199-77.64329398999996 672.466824-97.88235299999997 647.52941199-97.88235299999997L45.17647099-97.88235299999997C20.239059-97.88235299999997 0-77.64329398999996 0-52.705881989999966L0 850.82352901C0 875.760941 20.239059 896 45.17647099 896L828.23529401 896C853.17270599 896 873.411765 875.760941 873.411765 850.82352901L873.411765 399.088941C873.411765 374.12141198999996 853.17270599 353.88235299999997 828.23529401 353.88235299999997Z"  horiz-adv-x="1025" />

    
    <glyph glyph-name="expand-h" unicode="&#59030;" d="M1005.36415671 615.60953992L18.63584329 615.60953992c-2.35956771 0-4.29012309-1.9305554-4.29012311-4.29012309l0-92.666659c0-2.35956771 1.9305554-4.29012309 4.29012311-4.29012309l986.72831342 0c2.35956771 0 4.29012309 1.9305554 4.29012311 4.29012309l0 92.666659C1009.65427982 613.67898453 1007.72372443 615.60953992 1005.36415671 615.60953992zM1005.36415671 429.4753049L18.63584329 429.4753049c-2.35956771 0-4.29012309-1.9305554-4.29012311-4.29012313L14.34572018 332.51852277c0-2.35956771 1.9305554-4.29012309 4.29012311-4.29012311l986.72831342 0c2.35956771 0 4.29012309 1.9305554 4.29012311 4.29012311l0 92.666659C1009.65427982 427.54474949 1007.72372443 429.4753049 1005.36415671 429.4753049zM1005.36415671 221.79323034000004L18.63584329 221.79323034000004c-2.35956771 0-4.29012309-1.9305554-4.29012311-4.2901231l0-92.66665899c0-2.35956771 1.9305554-4.29012309 4.29012311-4.29012311l986.72831342 0c2.35956771 0 4.29012309 1.9305554 4.29012311 4.29012311l0 92.66665899C1009.65427982 219.86267495000004 1007.72372443 221.79323034000004 1005.36415671 221.79323034000004z"  horiz-adv-x="1024" />

    
    <glyph glyph-name="theme" unicode="&#58967;" d="M512 384m-480 0a93.75 93.75 0 1 1 960 0 93.75 93.75 0 1 1-960 0Z"  horiz-adv-x="1024" />

    
    <glyph glyph-name="save" unicode="&#58952;" d="M862.23416889 871.31704889H164.96753778c-77.03096889 0-139.47790222-62.44693333-139.47790223-139.47790222v-697.26776889c0-77.03096889 62.44693333-139.47790222 139.47790223-139.47790223h697.26776889c77.03096889 0 139.47790222 62.44693333 139.47790222 139.47790223V731.83914667c-0.00113778 77.03096889-62.44693333 139.47790222-139.47904 139.47790222z m-141.57937778-72.03612444v-274.3660089H306.94058667V799.28092445h413.71420444z m211.38432-764.89841778c0.03072-38.41706667-31.08750222-69.58421333-69.50456889-69.61493334H165.12910222c-18.64704 0-36.25415111 7.16458667-49.44099555 20.35143112s-20.52437333 30.6176-20.52437334 49.26350222v697.38951111c0.06940445 38.59683555 31.36853333 69.85386667 69.96536889 69.87093333h69.77649778v-279.09006222c-0.05688889-38.42389333 31.04540445-69.61720889 69.46929778-69.67409778h418.57479111c38.51719111 0 69.74464 31.16032 69.74464 69.67409778V801.64295111h69.63882666c38.53880889-0.04096 69.74691555-31.31619555 69.70595556-69.85500444V34.38250667zM583.47178667 591.14837333c19.89176889 0 36.01749333 16.12572445 36.01749333 36.01749334v69.73667555c0 19.89176889-16.12572445 36.01749333-36.01749333 36.01749333s-36.01749333-16.12572445-36.01749334-36.01749333v-69.73667555c0-19.89176889 16.12572445-36.01749333 36.01749334-36.01749334z"  horiz-adv-x="1024" />

    
    <glyph glyph-name="piliangtianjia" unicode="&#58924;" d="M895.744 498.432c0 18.688-15.36 33.792-33.536 33.792H451.328c-18.688 0-33.536-15.36-33.536-33.792 0-18.688 15.36-33.792 33.536-33.792h410.368c19.2 0 34.048 15.36 34.048 33.792z m-97.536-148.736c0 18.688-15.36 33.792-33.536 33.792H451.328c-18.688 0-33.536-15.36-33.536-33.792s15.36-33.792 33.536-33.792h313.344c18.688 0.512 33.536 15.36 33.536 33.792z m-346.88-114.688c-18.688 0-33.536-14.848-33.536-33.792 0-18.688 15.36-33.792 33.536-33.792h181.76c18.688 0 35.584 15.36 35.584 33.792 0 18.688-14.848 33.792-33.536 33.792h-183.808z m427.008-273.664H384.512c-32.768 0-59.392 26.88-59.392 59.392V586.752c0 33.024 26.88 59.392 59.392 59.392h565.504c32.768 0 59.392-26.88 59.392-59.392v-87.04c28.16 11.52 58.112 19.456 89.344 22.784V616.96c0 65.792-53.248 119.04-119.04 119.04h-116.736v40.96c0 65.792-53.248 119.04-119.04 119.04H119.04C53.248 896 0 842.752 0 776.96v-625.408c0-65.792 53.248-119.296 119.04-119.296h116.736v-41.216c0-65.792 53.248-119.04 119.04-119.04h642.56c-46.336 20.736-86.784 51.2-119.04 89.344z m-729.6 160.512c-32.768 0-59.392 26.88-59.392 59.392V747.264c0 32.768 26.88 59.392 59.392 59.392H714.24c32.768 0 59.392-26.88 59.392-59.392v-11.52H354.816c-65.792 0-119.04-53.248-119.04-119.04v-494.592l-87.04-0.256z m1027.072 374.528c-171.776 0-311.296-139.52-311.296-310.784 0-171.776 139.776-311.296 311.552-311.296 171.52 0 310.784 139.52 310.784 310.784 0.768 171.52-139.008 311.296-311.04 311.296zM1377.28 148.736c-27.904 0-93.696 0.256-164.608 0.256 0-70.912 0-136.704-0.256-164.608 0-19.968-16.384-36.352-36.352-36.352s-36.096 15.872-36.096 36.096c0 27.904 0.256 93.696 0.256 165.12-71.424 0-137.216 0-165.12-0.256-19.968 0-36.096 15.872-36.096 36.096 0 19.968 16.384 36.352 36.352 36.352 27.904 0 93.696 0 164.608 0.256 0 71.424 0 136.704-0.256 164.608 0 19.968 15.872 36.096 36.096 36.096 19.968 0 36.352-16.384 36.352-36.352 0-27.904 0-93.696 0.256-164.608 70.912 0 136.448 0 164.352-0.256 19.968 0 36.352-16.384 36.352-36.352 0.256-20.224-15.872-36.096-35.84-36.096z"  horiz-adv-x="1486" />

    
    <glyph glyph-name="cancel" unicode="&#58895;" d="M512-128C229.229714-128 0 101.22971399999994 0 384S229.229714 896 512 896s512-229.229714 512-512-229.229714-512-512-512z m0 950.857143C283.087238 822.857143 73.142857 612.9127619999999 73.142857 384s209.944381-438.857143 438.857143-438.857143 438.857143 209.944381 438.857143 438.857143S740.912762 822.857143 512 822.857143z m229.449143-671.963429a48.713143 48.713143 0 0 0-68.949333 0l-155.160381 155.136-155.160381-155.136a48.737524 48.737524 0 1 0-68.973715 68.949334l155.160381 155.160381-155.160381 155.160381a48.761905 48.761905 0 0 0 68.973715 68.949333l155.160381-155.160381 155.160381 155.160381a48.761905 48.761905 0 1 0 68.949333-68.949333l-155.160381-155.160381 155.160381-155.160381a48.761905 48.761905 0 0 0 0-68.949334z"  horiz-adv-x="1024" />

    
    <glyph glyph-name="clear-cache" unicode="&#58927;" d="M899.446275-86.83218299999999c-6.72797 48.199785-51.871769 371.078348-59.151737 422.654118-11.575948 82.023635-82.343633 103.911537-122.767453 103.911537l-94.231581-0.191999V781.931948C622.663507 845.387665 571.751734 896.563437 506.928023 895.99544c-31.071862-0.319999-59.071737-13.103942-78.847649-35.99984-18.399918-21.279905-28.335874-49.831778-28.007876-80.039643v-340.854482l-99.463557-0.199999c-46.903791-2.031991-136.279393-32.287856-138.815381-132.175412-0.903996-35.447842-25.807885-277.502764-38.847827-400.566216a30.895862 30.895862 0 0 1 30.719863-34.143848h716.036811a2.087991 2.087991 0 0 0 0.631997 0 30.879862 30.879862 0 0 1 29.111871 41.151817z m-437.598052 867.132138c-0.167999 15.471931 4.43198 29.423869 12.967943 39.303825 8.143964 9.423958 19.455913 14.479936 32.711854 14.615935 28.783872-0.271999 53.695761-23.463896 53.991759-52.599766v-342.190476l-99.671556-0.199999V780.299955z m249.942887-846.52423l9.487958 170.759239a30.879862 30.879862 0 0 1-29.14387 32.543856c-17.167924 0.759997-31.607859-12.095946-32.543855-29.111871l-9.671957-174.191224H533.063906l9.735957 170.72724a30.879862 30.879862 0 0 1-29.079871 32.575855c-17.159924 0.663997-31.623859-12.063946-32.607854-29.079871l-9.927956-174.223224H360.608674l9.319959 170.791239a30.879862 30.879862 0 0 1-29.151871 32.511856c-17.023924 0.839996-31.599859-12.095946-32.527855-29.143871l-9.503957-174.167224H187.985443c9.543957 91.039595 34.583846 332.734518 35.559842 371.374346 1.671993 65.879707 71.91168 71.607681 78.47165 71.99968l415.974148 0.815996c9.01596 0 54.327758-2.439989 61.143727-50.759774 6.367972-45.215799 41.895813-299.222668 55.079755-393.430248H711.79111z"  horiz-adv-x="1024" />

    
    <glyph glyph-name="excel" unicode="&#59016;" d="M469.56088889 331.43466666999996L330.752 164.40888888999996 414.15111111 1.024000000000001h-62.23644444l-32.99555556 67.24266667c-7.05422222 14.336-15.01866667 32.08533333-24.00711111 53.248l-98.304-120.37688889h-70.656L269.65333333 168.84622221999996l-82.48888888 162.70222223h62.23644444l27.98933333-58.82311112c10.35377778-21.95911111 19.68355555-43.008 27.98933333-63.14666666l95.232 121.96977778h68.94933334zM2.27555555 466.71644445h591.64444445v-591.64444445H2.27555555v591.64444445z m56.8888889-534.75555556h477.86666666v477.86666666H59.16444445v-477.86666666z m959.14666666 612.23822222V-102.96888889000002H639.54488889v56.88888889H961.42222222V520.64711111l-23.552 23.552H668.78577778V813.28355555L645.23377778 836.83555555H267.37777778v-327.22488888h-56.88888889V893.72444445h458.29688889L1018.31111111 544.19911111z m-137.32977778 56.88888889L725.67466667 756.39466667v-155.30666667h155.30666666z"  horiz-adv-x="1024" />

    
    <glyph glyph-name="baocun" unicode="&#58936;" d="M128 768v-768h768.085333L896 537.002667 665.002667 768H128z m768-853.333333H128c-47.061333 0-85.333333 38.272-85.333333 85.333333V768C42.666667 815.061333 80.938667 853.333333 128 853.333333h572.373333L981.333333 572.330667V0c0-47.061333-38.272-85.333333-85.333333-85.333333zM298.666667 469.333333h256V768H298.666667v-298.666667z m277.12-85.333333H277.504C242.133333 384 213.333333 412.8 213.333333 448.170667V853.333333h426.666667v-405.162666c0-35.370667-28.8-64.170667-64.213333-64.170667z"  horiz-adv-x="1024" />

    
    <glyph glyph-name="daoru" unicode="&#58937;" d="M563.2 853.333333v-640c0-23.466667-19.2-42.666667-42.666667-42.666666s-42.666667 19.2-42.666666 42.666666V853.333333c0 23.466667 19.2 42.666667 42.666666 42.666667s42.666667-19.2 42.666667-42.666667M806.1952 438.724267L550.5792 183.099733a42.7776 42.7776 0 0 0-60.330667 0c-16.597333 16.605867-16.597333 43.776 0 60.330667l255.616 255.624533a42.7776 42.7776 0 0 0 60.330667 0 42.7776 42.7776 0 0 0 0-60.330666M490.350933 183.1168L234.734933 438.724267a42.7776 42.7776 0 0 0 0 60.330666c16.597333 16.605867 43.776 16.605867 60.330667 0l255.616-255.616a42.7776 42.7776 0 0 0 0-60.330666 42.7776 42.7776 0 0 0-60.330667 0M904.533333-128H136.533333c-70.570667 0-128 57.429333-128 128V256c0 23.594667 19.072 42.666667 42.666667 42.666667s42.666667-19.072 42.666667-42.666667v-256c0-23.552 19.114667-42.666667 42.666666-42.666667h768c23.552 0 42.666667 19.114667 42.666667 42.666667V256c0 23.594667 19.072 42.666667 42.666667 42.666667s42.666667-19.072 42.666666-42.666667v-256c0-70.570667-57.429333-128-128-128"  horiz-adv-x="1032" />

    
    <glyph glyph-name="guanbi" unicode="&#58938;" d="M451.669333 384L55.108267-12.544a42.7776 42.7776 0 0 1 0-60.330667 42.7776 42.7776 0 0 1 60.330666 0L512 323.643733l396.544-396.561066c16.597333-16.597333 43.776-16.597333 60.330667 0 16.597333 16.597333 16.597333 43.776 0 60.373333L572.347733 384l396.561067 396.544c16.597333 16.597333 16.597333 43.776 0 60.330667-16.597333 16.597333-43.776 16.597333-60.373333 0L512 444.3392 115.456 840.874667a42.7776 42.7776 0 0 1-60.330667 0 42.7776 42.7776 0 0 1 0-60.330667L451.669333 384z"  horiz-adv-x="1024" />

    
    <glyph glyph-name="daochu" unicode="&#58939;" d="M469.333333 213.333333V853.333333c0 23.466667 19.2 42.666667 42.666667 42.666667s42.666667-19.2 42.666667-42.666667v-640c0-23.466667-19.2-42.666667-42.666667-42.666666s-42.666667 19.2-42.666667 42.666666M226.210133 627.9424L481.826133 883.566933a42.7776 42.7776 0 0 0 60.330667 0c16.597333-16.597333 16.597333-43.776 0-60.330666L286.5408 567.611733a42.7776 42.7776 0 0 0-60.330667 0 42.7776 42.7776 0 0 0 0 60.330667M542.0544 883.5584l255.616-255.616a42.7776 42.7776 0 0 0 0-60.330667c-16.597333-16.605867-43.776-16.605867-60.330667 0L481.723733 823.210667a42.7776 42.7776 0 0 0 0 60.330666 42.7776 42.7776 0 0 0 60.330667 0M896-128H128c-70.570667 0-128 57.429333-128 128V256c0 23.594667 19.072 42.666667 42.666667 42.666667s42.666667-19.072 42.666666-42.666667v-256c0-23.552 19.114667-42.666667 42.666667-42.666667h768c23.552 0 42.666667 19.114667 42.666667 42.666667V256c0 23.594667 19.072 42.666667 42.666666 42.666667s42.666667-19.072 42.666667-42.666667v-256c0-70.570667-57.429333-128-128-128"  horiz-adv-x="1024" />

    
    <glyph glyph-name="lock-screen" unicode="&#58940;" d="M170.461867 426.453333A42.478933 42.478933 0 0 1 128 384.008533v-384.221866a42.478933 42.478933 0 0 1 42.453333-42.4448h683.093334a42.478933 42.478933 0 0 1 42.453333 42.4448V384.017067a42.478933 42.478933 0 0 1-42.461867 42.4448h-683.093333zM853.546667-128h-683.093334C100.010667-128 42.666667-70.65599999999995 42.666667-0.2133330000000342V384.017067c0 70.442667 57.344 127.778133 127.778133 127.778133h683.093333c70.442667 0 127.786667-57.344 127.786667-127.778133v-384.221867c0-70.434133-57.344-127.778133-127.786667-127.778133zM768 426.666667H682.666667V640c0 94.122667-76.544 170.666667-170.666667 170.666667s-170.666667-76.544-170.666667-170.666667v-213.333333H256V640C256 781.184 370.816 896 512 896s256-114.816 256-256v-213.333333zM512 85.33333300000004c-23.466667 0-42.666667 19.2-42.666667 42.666667V256c0 23.466667 19.2 42.666667 42.666667 42.666667s42.666667-19.2 42.666667-42.666667v-128c0-23.466667-19.2-42.666667-42.666667-42.666667"  horiz-adv-x="1024" />

    
    <glyph glyph-name="rili" unicode="&#58941;" d="M128 725.333333c-23.509333 0-42.666667-19.157333-42.666667-42.666666v-682.666667c0-23.552 19.157333-42.666667 42.666667-42.666667h768c23.552 0 42.666667 19.114667 42.666667 42.666667V682.666667c0 23.509333-19.114667 42.666667-42.666667 42.666666H128z m768-853.333333H128c-70.570667 0-128 57.429333-128 128V682.666667c0 70.570667 57.429333 128 128 128h768c70.570667 0 128-57.429333 128-128v-682.666667c0-70.570667-57.429333-128-128-128zM301.3376 640h-5.341867a40.0896 40.0896 0 0 0-39.970133 39.978667V855.978667c0 22.016 17.962667 40.021333 39.970133 40.021333h5.341867c22.016 0 39.970133-18.005333 39.970133-40.021333v-176A40.0896 40.0896 0 0 0 301.346133 640M728.004267 640h-5.341867a40.0896 40.0896 0 0 0-39.970133 39.978667V855.978667c0 22.016 17.962667 40.021333 39.970133 40.021333h5.341867c22.016 0 39.970133-18.005333 39.970133-40.021333v-176A40.0896 40.0896 0 0 0 728.0128 640M298.666667 170.666667H213.333333c-23.466667 0-42.666667 19.2-42.666666 42.666666s19.2 42.666667 42.666666 42.666667h85.333334c23.466667 0 42.666667-19.2 42.666666-42.666667s-19.2-42.666667-42.666666-42.666666M554.666667 170.666667H469.333333c-23.466667 0-42.666667 19.2-42.666666 42.666666s19.2 42.666667 42.666666 42.666667h85.333334c23.466667 0 42.666667-19.2 42.666666-42.666667s-19.2-42.666667-42.666666-42.666666M298.666667 384H213.333333c-23.466667 0-42.666667 19.2-42.666666 42.666667s19.2 42.666667 42.666666 42.666666h85.333334c23.466667 0 42.666667-19.2 42.666666-42.666666s-19.2-42.666667-42.666666-42.666667M810.666667 384H725.333333c-23.466667 0-42.666667 19.2-42.666666 42.666667s19.2 42.666667 42.666666 42.666666h85.333334c23.466667 0 42.666667-19.2 42.666666-42.666666s-19.2-42.666667-42.666666-42.666667M554.666667 384H469.333333c-23.466667 0-42.666667 19.2-42.666666 42.666667s19.2 42.666667 42.666666 42.666666h85.333334c23.466667 0 42.666667-19.2 42.666666-42.666666s-19.2-42.666667-42.666666-42.666667"  horiz-adv-x="1024" />

    
    <glyph glyph-name="full-screen" unicode="&#58942;" d="M938.666667 768H640c-23.466667 0-42.666667 19.2-42.666667 42.666667s19.2 42.666667 42.666667 42.666666h298.666667c23.466667 0 42.666667-19.2 42.666666-42.666666s-19.2-42.666667-42.666666-42.666667M384 768H85.333333c-23.466667 0-42.666667 19.2-42.666666 42.666667s19.2 42.666667 42.666666 42.666666h298.666667c23.466667 0 42.666667-19.2 42.666667-42.666666s-19.2-42.666667-42.666667-42.666667M896 512V810.666667c0 23.466667 19.2 42.666667 42.666667 42.666666s42.666667-19.2 42.666666-42.666666v-298.666667c0-23.466667-19.2-42.666667-42.666666-42.666667s-42.666667 19.2-42.666667 42.666667M42.666667 512V810.666667c0 23.466667 19.2 42.666667 42.666666 42.666666s42.666667-19.2 42.666667-42.666666v-298.666667c0-23.466667-19.2-42.666667-42.666667-42.666667s-42.666667 19.2-42.666666 42.666667M85.333333 0h298.666667c23.466667 0 42.666667-19.2 42.666667-42.666667s-19.2-42.666667-42.666667-42.666666H85.333333c-23.466667 0-42.666667 19.2-42.666666 42.666666s19.2 42.666667 42.666666 42.666667M640 0h298.666667c23.466667 0 42.666667-19.2 42.666666-42.666667s-19.2-42.666667-42.666666-42.666666H640c-23.466667 0-42.666667 19.2-42.666667 42.666666s19.2 42.666667 42.666667 42.666667M128-42.66666699999996c0-23.466667-19.2-42.666667-42.666667-42.666666s-42.666667 19.2-42.666666 42.666666V256c0 23.466667 19.2 42.666667 42.666666 42.666667s42.666667-19.2 42.666667-42.666667v-298.666667zM981.333333-42.66666699999996c0-23.466667-19.2-42.666667-42.666666-42.666666s-42.666667 19.2-42.666667 42.666666V256c0 23.466667 19.2 42.666667 42.666667 42.666667s42.666667-19.2 42.666666-42.666667v-298.666667zM908.535467 840.874667c16.597333 16.597333 43.776 16.597333 60.373333 0 16.554667-16.597333 16.554667-43.733333 0-60.330667L682.658133 494.336a42.7776 42.7776 0 0 0-60.330666 0 42.7776 42.7776 0 0 0 0 60.330667l286.208 286.208zM341.316267 273.664c16.605867 16.597333 43.776 16.597333 60.381866 0 16.554667-16.597333 16.554667-43.733333 0-60.330667l-286.250666-286.208a42.7776 42.7776 0 0 0-60.330667 0 42.7776 42.7776 0 0 0 0 60.330667l286.208 286.208z"  horiz-adv-x="1024" />

    
    <glyph glyph-name="queren" unicode="&#58943;" d="M385.425067 69.0432L76.475733 469.248c-14.293333 18.602667-41.216 22.144-59.818666 7.893333-18.602667-14.293333-22.186667-41.216-7.893334-59.861333l342.229334-443.306667a42.692267 42.692267 0 0 1 33.134933-16.64 42.709333 42.709333 0 0 1 35.498667 16.605867l595.626666 768.213333c14.250667 18.602667 10.709333 45.482667-7.893333 59.733334-18.602667 14.293333-45.525333 10.752-59.818667-7.850667l-562.116266-724.992z"  horiz-adv-x="1024" />

    
    <glyph glyph-name="shaixuan" unicode="&#58944;" d="M42.641067 896C9.019733 895.914667-11.332267 858.752 6.7584 830.378667l334.592-503.381334v-412.202666c0-24.490667 20.053333-42.794667 42.709333-42.794667 4.949333 0 10.026667 0.896 15.018667 2.773333l255.829333 93.909334a42.734933 42.734933 0 0 1 27.776 40.021333v318.293333l334.037334 502.570667C1035.690667 857.941333 1015.355733 896 981.265067 896H42.641067z m79.018666-85.333333h778.709334L612.241067 375.168l-14.890667-21.76v-315.178667l-170.666667-62.037333V352.426667l-13.952 21.290666L121.659733 810.666667z"  horiz-adv-x="1024" />

    
    <glyph glyph-name="shanchu" unicode="&#58945;" d="M214.6048 597.333333v-598.613333a41.429333 41.429333 0 0 1 41.386667-41.386667h513.28c22.869333 0 41.386667 18.56 41.386666 41.386667V597.333333h-596.053333z m554.666667-725.333333h-513.28c-69.845333 0-126.72 56.832-126.72 126.72V682.666667h766.72v-683.946667c0-69.888-56.832-126.72-126.72-126.72zM981.333333 597.333333H42.666667c-23.466667 0-42.666667 19.2-42.666667 42.666667s19.2 42.666667 42.666667 42.666667h938.666666c23.466667 0 42.666667-19.2 42.666667-42.666667s-19.2-42.666667-42.666667-42.666667M768 682.666667H682.666667V768c0 23.509333-19.114667 42.666667-42.666667 42.666667H384c-23.509333 0-42.666667-19.157333-42.666667-42.666667v-85.333333H256V768c0 70.570667 57.429333 128 128 128h256c70.570667 0 128-57.429333 128-128v-85.333333zM384 85.333333c-23.466667 0-42.666667 19.2-42.666667 42.666667V426.666667c0 23.466667 19.2 42.666667 42.666667 42.666666s42.666667-19.2 42.666667-42.666666v-298.666667c0-23.466667-19.2-42.666667-42.666667-42.666667M640 85.333333c-23.466667 0-42.666667 19.2-42.666667 42.666667V426.666667c0 23.466667 19.2 42.666667 42.666667 42.666666s42.666667-19.2 42.666667-42.666666v-298.666667c0-23.466667-19.2-42.666667-42.666667-42.666667"  horiz-adv-x="1024" />

    
    <glyph glyph-name="setting" unicode="&#58946;" d="M313.412425 79.172146l25.224519-13.738659a359.142191 359.142191 0 0 1 70.698625-29.09865l27.511451-8.106661 7.133862-70.826626 136.055388-0.042666 7.082662 70.826625 27.562651 8.140795a361.053656 361.053656 0 0 1 70.741292 29.09865l25.224518 13.738658 54.954635-44.97064 96.213277 96.213277-45.013307 55.005835 13.781325 25.258652c11.89546 21.759987 21.708787 45.567973 29.141317 70.655959l8.106662 27.56265 70.826625 7.082663V452.027395l-70.826625 7.125329-8.106662 27.519984c-7.423996 25.087985-17.237323 48.895971-29.141317 70.707159l-13.738658 25.215985 45.013307 54.954635-96.213277 96.255944-55.005835-44.970641-25.215985 13.738659a361.053656 361.053656 0 0 1-70.741292 29.09865l-27.562651 8.149328-7.039996 70.826625-136.055387 0.042667-7.167996-70.911959-27.528517-8.106661c-25.087985-7.381329-48.810638-17.15199-70.698626-29.09865l-25.215985-13.738659-54.997301 45.004774-96.255944-96.255944 45.02184-54.954635-13.789858-25.215985a367.359786 367.359786 0 0 1-29.04745-70.741292l-8.157862-27.511451-70.613292-7.082662-0.256-135.901787 70.877826-7.295996 8.149328-27.562651a368.486185 368.486185 0 0 1 29.04745-70.741292l13.789858-25.173318-44.799973-54.783969 95.871944-96.255943 55.159434 44.799973z m266.623845-207.155079h-136.021254c-44.117308 0-80.639953 33.023981-84.991951 76.885288l-1.450666 14.677325a443.903741 443.903741 0 0 0-33.74078 13.875192l-11.22986-9.181861a85.290617 85.290617 0 0 0-114.687933 5.71733l-95.871944 95.91461a85.265017 85.265017 0 0 0-5.71733 114.773267l9.130661 11.144526a443.903741 443.903741 0 0 0-13.866658 33.749314l-14.455459 1.450666a85.367417 85.367417 0 0 0-77.141288 85.162617V451.814062a85.333284 85.333284 0 0 0 77.090088 85.162617l14.506659 1.450666a443.903741 443.903741 0 0 0 13.866658 33.749313l-9.343994 11.349327a85.128484 85.128484 0 0 0 5.71733 114.380733l96.255943 96.255944a85.137017 85.137017 0 0 0 114.389267 5.71733l11.349327-9.343994a444.202408 444.202408 0 0 0 33.757847 13.909325l1.450666 14.677325a85.085817 85.085817 0 0 0 84.99195 76.885288h136.021254a85.162617 85.162617 0 0 0 84.94075-76.834089l1.450666-14.719991a437.102678 437.102678 0 0 0 33.757847-13.909325l11.30666 9.301328a85.162617 85.162617 0 0 0 114.466067-5.71733l96.17061-96.213277a85.077284 85.077284 0 0 0 5.71733-114.389267l-9.258661-11.349327a462.122397 462.122397 0 0 0 13.875192-33.757847l14.677325-1.450666a85.102884 85.102884 0 0 0 76.842622-84.949283v-136.055388c0-44.031974-33.023981-80.55462-76.842622-84.957817l-14.677325-1.450666a462.122397 462.122397 0 0 0-13.875192-33.74078l9.215995-11.30666a85.14555 85.14555 0 0 0-5.66613-114.483133l-96.170611-96.170611a85.14555 85.14555 0 0 0-114.431933-5.71733l-11.349327 9.301328a436.821079 436.821079 0 0 0-33.757847-13.858125l-1.450666-14.677325a85.128484 85.128484 0 0 0-84.94075-76.885288zM512.008576 597.3329100000001c-117.631931 0-213.333209-95.701278-213.333209-213.333209s95.701278-213.333209 213.333209-213.333209 213.333209 95.701278 213.333209 213.333209-95.701278 213.333209-213.333209 213.333209m0-85.333283c70.698625 0 127.999925-57.3013 127.999925-127.999926s-57.3013-127.999925-127.999925-127.999925-127.999925 57.3013-127.999925 127.999925 57.3013 127.999925 127.999925 127.999926"  horiz-adv-x="1024" />

    
    <glyph glyph-name="back" unicode="&#58947;" d="M220.72888889 383.95145443c-0.04854557-3.93216 0.63108779-7.67013888 1.50490112-11.50520888 0.3883611-1.65053667 0.63108779-3.25252779 1.21362887-4.85451776 2.62144-7.91286557 6.50505443-15.38882333 13.05865557-21.26279112l486.03439332-435.49885667a48.31216867 48.31216867 0 0 1 68.59434666 4.27197667c17.71899221 20.29188779 15.82572999 51.55498667-4.2234311 69.51670443L341.2180389 383.95145443l445.69334443 399.42978447c20.0491611 17.9617189 21.94242333 49.22481778 4.2234311 69.51670443a48.31216867 48.31216867 0 0 1-68.59434666 4.27197667L236.50607445 421.57397333c-6.5536-5.87396779-10.43721443-13.34992555-13.05865557-21.26279111-0.58254222-1.60199111-0.82526777-3.20398222-1.21362887-4.85451889-0.87381333-3.83507001-1.55344555-7.57304889-1.50490112-11.5052089"  horiz-adv-x="1024" />

    
    <glyph glyph-name="forward" unicode="&#58948;" d="M803.27111111 384.04854557c0.05825422 3.93216-0.62137799 7.67013888-1.49519132 11.50520888-0.3883611 1.65053667-0.63108779 3.25252779-1.21363001 4.85451776-2.62144 7.91286557-6.50505443 15.38882333-13.05865444 21.26279112l-486.03439445 435.49885667a48.31216867 48.31216867 0 0 1-68.59434667-4.27197667c-17.71899221-20.29188779-15.82572999-51.55498667 4.22343111-69.51670443l445.69334557-399.33269333-445.69334557-399.42978447c-20.0491611-17.9617189-21.94242333-49.22481778-4.22343111-69.51670443a48.31216867 48.31216867 0 0 1 68.59434667-4.27197667l486.03439445 435.59594667c6.5536 5.87396779 10.43721443 13.34992555 13.05865444 21.26279111 0.58254222 1.60199111 0.82526777 3.20398222 1.21363001 4.85451889 0.87381333 3.83507001 1.55344555 7.57304889 1.50489998 11.5052089"  horiz-adv-x="1024" />

    
    <glyph glyph-name="message" unicode="&#58949;" d="M201.335467 85.33333300000004h621.354666l-49.237333 86.613334a42.555733 42.555733 0 0 0-5.461333 24.277333V426.666667c0 141.184-114.816 256-256 256-141.141333 0-256-114.816-256-256v-230.186667l0.128-1.493333a43.008 43.008 0 0 0-5.546667-23.04L201.335467 85.33333300000004z m694.656-85.333333h-768a42.666667 42.666667 0 0 0-37.077334 63.744l79.957334 140.629333L170.658133 426.666667c0 188.202667 153.130667 341.333333 341.333334 341.333333s341.333333-153.130667 341.333333-341.333333v-222.549334l79.744-140.373333a42.769067 42.769067 0 0 0-0.170667-42.538667 42.632533 42.632533 0 0 0-36.906666-21.205333zM512-128c-117.632 0-213.333333 95.701333-213.333333 213.333333h85.333333c0-70.570667 57.429333-128 128-128s128 57.429333 128 128h85.333333c0-117.632-95.701333-213.333333-213.333333-213.333333M405.9648 696.541867a127.505067 127.505067 0 0 0-21.896533 71.552c0 70.528 57.386667 127.914667 127.914666 127.914666 70.570667 0 127.914667-57.386667 127.914667-127.914666 0-25.6-7.509333-50.304-21.794133-71.509334l-70.784 47.658667c4.778667 7.082667 7.253333 15.317333 7.253333 23.850667 0 23.466667-19.072 42.581333-42.581333 42.581333-23.466667 0-42.581333-19.114667-42.581334-42.581333 0-8.533333 2.517333-16.768 7.253334-23.808l-70.698667-47.744z"  horiz-adv-x="1024" />

    
    <glyph glyph-name="tuichu" unicode="&#58950;" d="M511.991851-127.982934c-282.320581 0-511.991381 229.679334-511.991382 511.991382 0 282.277915 229.670801 511.991381 511.991382 511.991381a510.813801 510.813801 0 0 0 344.271538-133.032427 42.640349 42.640349 0 0 0 2.901284-60.244319c-15.829067-17.493039-42.793946-18.730351-60.286985-2.901285A425.840298 425.840298 0 0 1 511.991851 810.667932c-235.26004 0-426.659485-191.399445-426.659485-426.659484 0-235.302706 191.399445-426.659485 426.659485-426.659485 105.982216 0 207.569839 39.082009 286.032518 110.078147a42.606216 42.606216 0 0 0 60.244319-2.986616 42.640349 42.640349 0 0 0-2.986616-60.244319c-94.163748-85.246565-216.103029-132.179108-343.290221-132.179109M885.975955 343.552596H341.328057c-23.466272 0-42.665948 19.199677-42.665948 42.665948s19.199677 42.665948 42.665948 42.665948h544.647898L792.989787 524.550082a42.77688 42.77688 0 0 0 0 60.329651 42.77688 42.77688 0 0 0 60.329651 0l158.205337-162.770593a42.58915 42.58915 0 0 0 12.356059-32.946646 42.77688 42.77688 0 0 0 0-5.879367 42.58915 42.58915 0 0 0-12.356059-32.955179L853.319438 187.557355a42.77688 42.77688 0 0 0-60.329651 0 42.77688 42.77688 0 0 0 0 60.329651l92.986168 95.674123z"  horiz-adv-x="1024" />

    
    <glyph glyph-name="bianji" unicode="&#58951;" d="M934.724189 617.173271L834.414864 516.863946 653.380212 697.898598l100.394659 100.351991A42.257063 42.257063 0 0 0 783.769535 810.666588c6.527999 0 19.157332-1.621333 29.951997-12.415999l121.002657-121.002656a42.538663 42.538663 0 0 0 0-60.074662zM299.374908-18.176009l-200.661316-19.626665 19.669331 200.661316L593.049551 637.52527 774.084202 456.533285l-474.709294-474.709294z m695.679942 755.79727L874.09486 858.581251A127.317323 127.317323 0 0 1 783.769535 895.999915c-32.725331 0-65.407995-12.458666-90.367993-37.418664l-646.229279-646.229279c-7.082666-7.082666-11.434666-16.469332-12.287999-26.495998l-26.197331-267.818645c-2.133333-25.002665 17.706665-46.037329 42.239996-46.037329 1.194667 0 2.432 0.042667 3.626666 0.128l267.818645 26.239998a42.12053 42.12053 0 0 1 26.495998 12.287999l646.186612 646.186613c49.919996 49.919996 49.919996 130.858656 0 180.778651z"  horiz-adv-x="1032" />

    
    <glyph glyph-name="search" unicode="&#58953;" d="M469.333333 42.65813300000002c-211.754667 0-384 172.245333-384 384s172.245333 384 384 384 384-172.245333 384-384-172.245333-384-384-384m542.208-97.877333L829.952 126.41279999999995c67.84 81.365333 108.714667 186.026667 108.714667 300.245333 0 259.2-210.133333 469.333333-469.333334 469.333334s-469.333333-210.133333-469.333333-469.333334 210.133333-469.333333 469.333333-469.333333c114.218667 0 218.88 40.874667 300.245334 108.714667l181.632-181.589334a42.7776 42.7776 0 0 1 60.330666 0 42.7776 42.7776 0 0 1 0 60.330667"  horiz-adv-x="1024" />

    
    <glyph glyph-name="shaixuan1" unicode="&#58920;" d="M1150.624 754.257c0-25.85-20.958-46.803-46.803-46.803h-994.641c0 0 0 0 0 0-25.85 0-46.803 20.958-46.803 46.803 0 25.85 20.958 46.803 46.803 46.803 0 0 0 0 0 0h994.641c25.85 0 46.803-20.958 46.803-46.803zM822.982 52.158c0-25.837-14.469-46.803-32.207-46.803h-684.502c-17.787 0-32.207 20.967-32.207 46.803s14.469 46.803 32.207 46.803h684.453c17.787 0 32.251-20.967 32.251-46.803zM1112.759 40.499c-6.939-4.431-15.404-7.061-24.479-7.061-16.305 0-30.625 8.49-38.789 21.289l-64.19 101.943c-4.669 7.075-7.449 15.757-7.449 25.088 0 25.385 20.582 45.962 45.962 45.962 16.562 0 31.073-8.757 39.166-21.892l64.191-101.956c4.431-6.939 7.061-15.404 7.061-24.479 0-16.305-8.49-30.625-21.289-38.789zM618.199 407.937c0-23.634-18.022-42.779-40.209-42.779h-463.667c-22.228 0-40.209 19.146-40.209 42.779s18.022 42.779 40.209 42.779h463.667c22.185 0 40.209-19.146 40.209-42.779zM905.827 579.438c-0.915 0.006-2.004 0.023-3.088 0.023-112.554 0-203.796-91.243-203.796-203.796 0-112.554 91.243-203.796 203.796-203.796 1.085 0 2.171 0.003 3.252 0.025 111.054 1.74 200.545 92.301 200.545 203.773 0 111.466-89.492 202.037-200.545 203.773zM902.692 241.212c-0.003 0-0.006 0-0.023 0-74.204 0-134.359 60.158-134.359 134.359 0 74.195 60.141 134.346 134.333 134.359 0.003 0 0.007 0 0.025 0 74.204 0 134.359-60.158 134.359-134.359 0-74.195-60.141-134.346-134.333-134.359z"  horiz-adv-x="1232" />

    
    <glyph glyph-name="export" unicode="&#58955;" d="M948.90666667 291.15733333000003c-32.768 0-54.61333333-21.84533333-54.61333334-54.61333333v-218.45333333H129.70666667v218.45333333c0 32.768-21.84533333 54.61333333-54.61333334 54.61333333s-54.61333333-21.84533333-54.61333333-54.61333333v-273.06666667c0-16.384 5.46133333-27.30666667 16.384-38.22933333 10.92266667-10.92266667 21.84533333-16.384 38.22933333-16.384h873.81333334c16.384 0 27.30666667 5.46133333 38.22933333 16.384 10.92266667 10.92266667 16.384 21.84533333 16.384 38.22933333v273.06666667c0 32.768-21.84533333 54.61333333-54.61333333 54.61333333zM479.232 198.31466666999995c10.92266667-5.46133333 21.84533333-10.92266667 32.768-10.92266667s21.84533333 5.46133333 32.768 10.92266667l273.06666667 218.45333333c21.84533333 16.384 27.30666667 54.61333333 10.92266666 76.45866667-16.384 21.84533333-54.61333333 27.30666667-76.45866666 10.92266666L566.61333333 351.23199999999997V837.29066667c0 32.768-21.84533333 54.61333333-54.61333333 54.61333333s-54.61333333-21.84533333-54.61333333-54.61333333v-486.05866667L271.70133333 498.688c-21.84533333 21.84533333-54.61333333 16.384-76.45866666-5.46133333-16.384-27.30666667-16.384-60.07466667 10.92266666-76.45866667l273.06666667-218.45333333z"  horiz-adv-x="1024" />

    
    <glyph glyph-name="fuzhi" unicode="&#58984;" d="M896 725.333333H298.666667c-70.4 0-128-57.6-128-128v-597.333333c0-70.4 57.6-128 128-128h597.333333c70.4 0 128 57.6 128 128V597.333333c0 70.4-57.6 128-128 128m0-85.333333c23.125333 0 42.666667-19.541333 42.666667-42.666667v-597.333333c0-23.125333-19.541333-42.666667-42.666667-42.666667H298.666667c-23.125333 0-42.666667 19.541333-42.666667 42.666667V597.333333c0 23.125333 19.541333 42.666667 42.666667 42.666667h597.333333M170.666667 128h-42.666667c-23.125333 0-42.666667 19.541333-42.666667 42.666667V768c0 23.125333 19.541333 42.666667 42.666667 42.666667h597.333333c23.125333 0 42.666667-19.541333 42.666667-42.666667v-42.496h85.333333V768c0 70.4-57.6 128-128 128H128C57.6 896 0 838.4 0 768v-597.333333c0-70.4 57.6-128 128-128h42.666667V128zM554.666667 128V469.333333c0 23.466667 19.2 42.666667 42.666666 42.666667s42.666667-19.2 42.666667-42.666667v-341.333333c0-23.466667-19.2-42.666667-42.666667-42.666667s-42.666667 19.2-42.666666 42.666667M768 256H426.666667c-23.466667 0-42.666667 19.2-42.666667 42.666667s19.2 42.666667 42.666667 42.666666h341.333333c23.466667 0 42.666667-19.2 42.666667-42.666666s-19.2-42.666667-42.666667-42.666667"  horiz-adv-x="1024" />

    
    <glyph glyph-name="delete" unicode="&#58891;" d="M512-128C229.248-128 0 101.24800000000005 0 384S229.248 896 512 896s512-229.248 512-512-229.248-512-512-512z m0 938.666667C276.352 810.666667 85.333333 619.648 85.333333 384s191.018667-426.666667 426.666667-426.666667 426.666667 191.018667 426.666667 426.666667S747.648 810.666667 512 810.666667z m261.333333-469.333334H250.666667A37.333333 37.333333 0 0 0 213.333333 378.66666699999996v10.666666c0 20.608 16.725333 37.333333 37.333334 37.333334h522.666666c20.608 0 37.333333-16.725333 37.333334-37.333334v-10.666666a37.333333 37.333333 0 0 0-37.333334-37.333334z"  horiz-adv-x="1024" />

    
    <glyph glyph-name="add" unicode="&#58893;" d="M512-128C229.248-128 0 101.24800000000005 0 384S229.248 896 512 896s512-229.248 512-512-229.248-512-512-512z m0 938.666667C276.352 810.666667 85.333333 619.648 85.333333 384s191.018667-426.666667 426.666667-426.666667 426.666667 191.018667 426.666667 426.666667S747.648 810.666667 512 810.666667z m261.333333-469.333334H554.666667v-213.333333a42.666667 42.666667 0 0 0-85.333334 0v213.333333H250.666667A37.333333 37.333333 0 0 0 213.333333 378.66666699999996v10.666666c0 20.608 16.725333 37.333333 37.333334 37.333334H469.333333V640a42.666667 42.666667 0 0 0 85.333334 0v-213.333333h218.666666c20.608 0 37.333333-16.725333 37.333334-37.333334v-10.666666a37.333333 37.333333 0 0 0-37.333334-37.333334z"  horiz-adv-x="1024" />

    
    <glyph glyph-name="icon-line" unicode="&#58910;" d="M914.68266667 290.33813333c0.18133333 6.46293333 0.59093333 12.88 0.4544 19.38773334 0 159.92533333-94.29866667 304.46933333-236.1568 368.4128 0.4096 4.77866667 1.4112 9.37493333 1.4112 14.24426666 0 93.70773333-74.36586667 169.5296-166.34346667 169.5296S347.65866667 786.09066667 347.65866667 692.38293333c0-6.28053333 1.13813333-12.24213333 1.8208-18.34026666-136.3968-66.40106667-226.46293333-207.53066667-226.46293334-363.77066667 0-5.1424 0.864-9.46666667 1.0464-14.42666667a168.66453333 168.66453333 0 0 1-112.6848-159.744c0-93.70773333 74.3648-169.5296 166.3424-169.5296 34.67946667 0 66.85653333 10.78613333 93.48053334 29.30986667A390.02986667 390.02986667 0 0 1 519.5552-93.86666666999997c87.83573333 0 172.62293333 30.03733333 241.98186667 84.74133334a162.88426667 162.88426667 0 0 1 84.69653333-24.30293334c91.97866667 0 166.34346667 75.82186667 166.34346667 169.5296a169.30133333 169.30133333 0 0 1-97.8944 154.2368zM514.00213333 805.52426667c61.34933333 0 111.04746667-50.69973333 111.04746667-113.14133334 0-62.4864-49.744-113.18613333-111.04746667-113.18613333s-111.09226667 50.65386667-111.09226666 113.14133333c0 62.44053333 49.744 113.18613333 111.09333333 113.18613334zM177.72053333 22.915200000000027c-61.30346667 0-111.0464 50.69866667-111.0464 113.14026667 0 62.4864 49.74293333 113.18613333 111.0464 113.18613333 61.34933333 0 111.09333333-50.69866667 111.09333334-113.18613333 0.0448-62.39573333-49.744-113.14133333-111.09333334-113.14133334z m133.25653334 12.5152c20.57173333 28.21653333 33.1328 62.80533333 33.1328 100.67093333 0 93.4336-73.95626667 168.9824-165.57013334 169.48266667 0 1.86666667-0.31786667 3.2768-0.31786666 5.18826667 0 131.072 73.59146667 250.2208 186.09493333 308.65706666 26.80533333-57.02613333 83.46666667-96.6208 149.68533333-96.6208 67.584 0 125.38346667 41.09653333 151.41546667 99.98826667 117.1456-56.84266667 194.37866667-178.31253333 194.37866667-312.5248 0-2.09386667-0.4096-3.91466667-0.45546667-5.96266667-4.41493333 0.3648-8.6016 1.32053333-13.1072 1.32053334-91.97866667 0-166.38933333-75.82186667-166.38933333-169.5744 0-41.09653333 14.928-78.32533333 38.82133333-107.63413334a337.92 337.92 0 0 0-199.1104-65.44426666 336.78186667 336.78186667 0 0 0-208.57813333 72.45333333z m535.3024-12.5152c-61.34933333 0-111.09333333 50.69866667-111.09333334 113.14026667 0 62.4864 49.78986667 113.18613333 111.09333334 113.18613333 61.30346667 0 111.0464-50.69866667 111.0464-113.18613333 0-62.39573333-49.7888-113.14133333-111.0464-113.14133334z"  horiz-adv-x="1024" />

    
    <glyph glyph-name="kaishi" unicode="&#58915;" d="M218.6630272 735.3733311999999l550.69373227-348.31269013-550.69373227-348.05727467V735.3733311999999M167.3405376 864.4616352c-5.97392533 0-11.93147733-1.48993387-17.3902016-4.47198507-11.32786347-6.28282667-18.6094368-18.27106347-18.60943787-31.51237333V-54.317792000000054c0-12.8865632 7.111296-24.9599392 18.60943787-31.41086187 5.45217493-2.97986773 11.32786347-4.3006144 17.2712256-4.3006144 6.7903872 0 13.39412267 1.65912 19.35494933 5.45217494L884.49535253 356.53282452999997c10.41425493 6.6212 16.69599147 18.11825067 16.6959904 30.51362667 0 12.395376-6.28282667 24.0616128-16.6959904 30.5136256L186.5776032 858.99090347c-5.99466453 3.6467904-12.62568853 5.47073173-19.2370656 5.47073173z"  horiz-adv-x="1024" />

    
    <glyph glyph-name="less-btns" unicode="&#58880;" d="M75.09333333 384c0 241.20888889 195.69777778 436.90666667 436.90666667 436.90666667S948.90666667 625.20888889 948.90666667 384 753.20888889-52.90666667000005 512-52.90666667000005s-436.90666667 195.69777778-436.90666667 436.90666667m-72.81777778 0C2.27555555 102.74133332999997 230.74133333-125.72444444999996 512-125.72444444999996s509.72444445 228.46577778 509.72444445 509.72444445-228.46577778 509.72444445-509.72444445 509.72444445S2.27555555 665.25866667 2.27555555 384z m603.47733334 309.47555555L348.16 435.88266667 296.27733333 384 348.16 332.11733332999995 605.75288889 74.52444445000003l51.88266666 51.88266666L400.04266667 384 657.63555555 641.59288889l-51.88266666 51.88266666z"  horiz-adv-x="1024" />

    
    <glyph glyph-name="org" unicode="&#59067;" d="M512 384a240 240 0 0 0-169.706 409.706 240 240 0 1 0 339.412-339.412A238.428 238.428 0 0 0 512 384z m0 416c-97.047 0-176-78.953-176-176s78.953-176 176-176 176 78.953 176 176S609.047 800 512 800zM800-96c-79.402 0-144 64.598-144 144s64.598 144 144 144 144-64.598 144-144-64.598-144-144-144z m0 224a80 80 0 1 1 80-80 80.09 80.09 0 0 1-80 80zM224-96c-79.402 0-144 64.598-144 144s64.598 144 144 144 144-64.598 144-144-64.598-144-144-144z m0 224a80 80 0 1 1 80-80 80.09 80.09 0 0 1-80 80zM800 128a32 32 0 0 0-32 32v64a32.036 32.036 0 0 1-32 32H288a32.036 32.036 0 0 1-32-32v-64a32 32 0 0 0-64 0v64a96.109 96.109 0 0 0 96 96h448a96.109 96.109 0 0 0 96-96v-64a32 32 0 0 0-32-32zM512 256a32 32 0 0 0-32 32V416a32 32 0 0 0 64 0v-128a32 32 0 0 0-32-32z"  horiz-adv-x="1024" />

    
    <glyph glyph-name="pack-up" unicode="&#58911;" d="M42.958 335.16200000000003c13.623-13.623 35.692-13.623 49.315 0L511.5 754.4l419.227-419.238c13.623-13.623 35.692-13.623 49.315 0s13.623 35.692 0 49.315L536.158 828.362c-13.623 13.623-35.692 13.623-49.315 0L42.958 384.489c-13.623-13.635-13.623-35.704 0-49.327zM42.958-13.587999999999965c13.623-13.623 35.692-13.623 49.315 0L511.5 405.65l419.227-419.238c13.623-13.623 35.692-13.623 49.315 0s13.623 35.692 0 49.315L536.158 479.612c-13.623 13.623-35.692 13.623-49.315 0L42.958 35.73900000000003c-13.623-13.635-13.623-35.704 0-49.327z"  horiz-adv-x="1024" />

    
    <glyph glyph-name="expand" unicode="&#58917;" d="M980.042 479.612c-13.623 13.623-35.692 13.623-49.315 0L511.5 60.374000000000024 92.273 479.612c-13.623 13.623-35.692 13.623-49.315 0s-13.623-35.692 0-49.315l443.884-443.884c13.623-13.623 35.692-13.623 49.315 0l443.885 443.873c13.623 13.633 13.623 35.703 0 49.326zM980.042 828.362c-13.623 13.623-35.692 13.623-49.315 0L511.5 409.124 92.273 828.362c-13.623 13.623-35.692 13.623-49.315 0s-13.623-35.692 0-49.315l443.884-443.884c13.623-13.623 35.692-13.623 49.315 0l443.885 443.873c13.623 13.633 13.623 35.703 0 49.326z"  horiz-adv-x="1024" />

    
    <glyph glyph-name="signout" unicode="&#61155;" d="M513.21362963 309.96859258999996a36.40888889 36.40888889 0 0 0-36.40888888 36.40888889V850.03377778a36.40888889 36.40888889 0 0 0 72.81777777 0v-503.6562963a36.40888889 36.40888889 0 0 0-36.40888889-36.40888889zM727.50421333 731.60779852a33.52045037 33.52045037 0 0 1 14.16305778-27.41589334 400.55845925 400.55845925 0 0 0 137.80764444-170.7091437A398.07051852 398.07051852 0 1 0 231.65155555 659.93083259a400.04873482 400.04873482 0 0 0 53.02347853 44.60088889 33.52045037 33.52045037 0 0 1 14.19946667 27.44016593c0 27.17316741-30.61987555 43.22948741-52.85357038 27.62221037C125.94441482 675.27111111 47.53180445 535.7037037 47.83521185 377.72553482c0.50972445-256.92539259 208.16175408-464.16478815 465.09928297-464.15265185S978.03377778 121.79531852000002 978.03377778 378.66002963000005c0 157.32280889-78.10920297 296.39262815-197.66385778 380.55784296-22.22155852 15.64368592-52.86570667-0.42477037-52.86570667-27.61007407z"  horiz-adv-x="1024" />

    
    <glyph glyph-name="tiaojianshaixuan1" unicode="&#58890;" d="M1202.018462 704.354462c32.925538 0 59.234462 26.230154 59.234461 59.234461a58.919385 58.919385 0 0 1-59.313231 59.313231H896.393846a58.919385 58.919385 0 0 1-59.234461-59.313231c0-33.004308 26.230154-59.234462 59.234461-59.234461h305.624616z m0-227.643077h-260.726154a58.919385 58.919385 0 0 1-59.234462-59.234462c0-33.083077 26.230154-59.313231 59.234462-59.313231h260.726154c32.925538 0 59.234462 26.230154 59.234461 59.313231a58.919385 58.919385 0 0 1-59.313231 59.234462z m0-345.324308h-218.427077a58.919385 58.919385 0 0 1-59.234462-59.313231c0-33.004308 26.230154-59.234462 59.234462-59.234461h218.348307c33.083077 0 59.313231 26.230154 59.313231 59.234461a58.919385 58.919385 0 0 1-59.313231 59.313231zM781.233231 424.172308A395.185231 395.185231 0 0 1 472.379077 888.123077 395.185231 395.185231 0 0 1 8.507077 579.111385a395.185231 395.185231 0 0 1 309.011692-463.872c26.230154-5.041231 52.460308-7.561846 78.690462-7.561847 59.234462 0 116.814769 13.548308 170.141538 38.912l123.510154-185.344a55.217231 55.217231 0 0 1 75.382154-15.28123 55.217231 55.217231 0 0 1 15.202461 75.382154L656.935385 206.690462A392.979692 392.979692 0 0 1 781.390769 424.172308z m-115.948308 23.709538a275.692308 275.692308 0 0 0-324.214154-215.827692 271.990154 271.990154 0 0 0-175.182769 117.681231 273.723077 273.723077 0 0 0-40.644923 206.532923A275.849846 275.849846 0 0 0 395.421538 777.058462c17.801846 0 36.391385-1.654154 54.193231-5.041231a276.48 276.48 0 0 0 215.827693-324.214154z"  horiz-adv-x="1261" />

    
    <glyph glyph-name="piliangtianjia2" unicode="&#59531;" d="M524.791046 822.425902m-46.764065 0a46.764065 46.764065 0 1 1 93.52813 0 46.764065 46.764065 0 1 1-93.52813 0ZM818.473469 351.715399m-46.764066 0a46.764065 46.764065 0 1 1 93.528131 0 46.764065 46.764065 0 1 1-93.528131 0ZM834.232038 374.841611c-17.191166 0-61.806336-13.916658-61.806336-31.107825v-322.334366c0-13.20036-16.065554-29.265914-29.265914-29.265913H130.92915c-13.20036 0-29.265914 16.065554-29.265914 29.265913V746.498251c0 13.20036 16.065554 29.265914 29.265914 29.265914h393.964225c17.191166 0 31.005496 44.615169 31.005496 61.704007 0 17.191166-13.916658 31.107825-31.005496 31.107825H70.964725C36.684721 868.473668 8.851404 840.74268 8.851404 806.360348v-844.823024c0-16.474868 6.549016-32.233437 18.21445-43.898871 11.665434-11.665434 27.424003-18.21445 43.898871-18.21445h732.261816c16.474868 0 32.233437 6.549016 43.898871 18.21445 11.665434 11.665434 18.21445 27.424003 18.21445 43.898871V343.836115c0 17.088838-13.916658 31.005496-31.107824 31.005496zM816.426901 868.473668c-109.798341 0-198.824023-89.025682-198.824023-198.824023 0-109.798341 89.025682-198.721695 198.824023-198.721695 52.699111 0 103.249325 20.977316 140.599181 58.224843C994.17128 566.502648 1015.148596 617.052863 1015.148596 669.751974c0 109.798341-89.025682 198.721695-198.721695 198.721694z m109.90067-229.829519h-78.895174v-78.895173c0-17.191166-13.916658-31.005496-31.005496-31.005496-17.191166 0-31.005496 13.916658-31.107824 31.005496v78.895173h-78.895174c-17.191166 0-31.107825 13.916658-31.107824 31.005496 0 17.191166 13.916658 31.107825 31.107824 31.107825h78.895174v72.755471c0 17.191166 13.916658 31.005496 31.107824 31.005496 17.191166 0 31.005496-13.916658 31.005496-31.005496v-72.755471h78.895174c17.191166 0 31.005496-13.916658 31.005496-31.107825 0.102328-17.088838-13.81433-31.005496-31.005496-31.005496zM602.662936 205.078845c-1.023284 0.204657-1.944239 0.306985-2.967523 0.306985H234.690117c-1.22794 0-2.455881-0.204657-3.683821-0.511642-23.84251-2.148896-42.466274-22.205256-42.466274-46.559408 0-25.786749 20.874988-46.764065 46.764065-46.764066 3.172179 0 6.242031 0.306985 9.311882 0.920956h349.758369c2.967523-0.61397 6.139702-0.920955 9.311882-0.920956 25.786749 0 46.764065 20.874988 46.764065 46.764066 0 25.786749-20.874988 46.764065-46.764065 46.764065h-1.023284zM207.777756 345.678025c6.856001-5.62806 16.372539-9.209553 26.912361-9.209553h291.226541v0.61397c2.046567-0.409313 4.093135-0.61397 6.242031-0.61397 1.841911 0 3.581493 0.204657 5.321075 0.409314 1.534926-0.204657 3.172179-0.204657 4.809434-0.204657 25.786749 0 46.764065 20.874988 46.764065 46.764065s-20.874988 46.764065-46.764065 46.764065c-3.172179 0-6.242031-0.306985-9.209554-0.920955h-0.920955c-2.046567 0-4.195463-0.204657-6.242031-0.61397v0.61397H244.206655c-2.865194 0.61397-5.935045 0.920955-9.004896 0.920955-25.786749 0-46.764065-20.874988-46.764065-46.764065 0-15.553912 7.674628-29.265914 19.340062-37.759169zM235.201759 555.655841c2.046567 0 4.093135 0.102328 6.037374 0.409313H464.212651c2.046567-0.306985 4.195463-0.409313 6.242031-0.409313 25.786749 0 46.764065 20.874988 46.764065 46.764065s-20.874988 46.764065-46.764065 46.764065c-1.944239 0-3.888478-0.102328-5.730389-0.409313-0.61397 0.102328-1.22794 0.102328-1.739582 0.102328H240.113521c-1.637254 0.204657-3.274508 0.204657-4.911762 0.204657-25.786749 0-46.764065-20.874988-46.764065-46.764065s20.977316-46.661737 46.764065-46.661737z"  horiz-adv-x="1024" />

    
    <glyph glyph-name="task" unicode="&#59250;" d="M1029.81530864 753.84958419l0-147.96572444c0-9.9679447-3.62470717-18.77080494-11.00357531-26.02021925-7.24941431-7.24941431-16.05227457-11.00357531-26.02021925-11.00357532L31.0790321 568.86006518c-9.9679447 0-18.77080494 3.62470717-26.02021927 11.00357532-7.24941431 7.24941431-11.00357531 15.92282075-11.0035753 26.02021925L-5.94476247 753.84958419c0 9.9679447 3.62470717 18.77080494 11.0035753 26.02021928s15.92282075 11.00357531 26.02021927 11.00357529l961.71248198 0c9.9679447 0 18.77080494-3.62470717 26.02021925-11.00357529 7.37886815-7.24941431 11.00357531-16.05227457 11.00357531-26.02021928z m0-295.93144888l0-147.96572445c0-9.9679447-3.62470717-18.77080494-11.00357531-26.02021925-7.24941431-7.24941431-16.05227457-11.00357531-26.02021925-11.00357531L31.0790321 272.92861629000004c-9.9679447 0-18.77080494 3.62470717-26.02021927 11.00357532-7.24941431 7.24941431-11.00357531 15.92282075-11.0035753 26.02021925L-5.94476247 457.91813531c0 9.9679447 3.62470717 18.77080494 11.0035753 26.02021926 7.24941431 7.24941431 15.92282075 11.00357531 26.02021927 11.0035753l961.71248198 0c9.9679447 0 18.77080494-3.62470717 26.02021925-11.0035753 7.37886815-7.37886815 11.00357531-15.92282075 11.00357531-26.02021926z m0-295.93144889l0-147.96572445c0-9.9679447-3.62470717-18.77080494-11.00357531-26.02021925-7.24941431-7.24941431-16.05227457-11.00357531-26.02021925-11.00357531L31.07903209-23.002832590000025c-9.9679447 0-18.77080494 3.62470717-26.02021926 11.00357531-7.24941431 7.24941431-11.00357531 15.92282075-11.0035753 26.02021925L-5.94476247 161.98668641999996c0 9.9679447 3.62470717 18.77080494 11.0035753 26.02021927 7.24941431 7.24941431 15.92282075 11.00357531 26.02021927 11.00357529l961.71248198 0c9.9679447 0 18.77080494-3.62470717 26.02021925-11.00357529 7.37886815-7.24941431 11.00357531-16.05227457 11.00357531-26.02021927z m-665.78103309 185.11897284l591.86289778 0 0 74.04758913L364.03427555 421.15324839l0-74.04758913z m222.01331359-296.06090274l369.84958419 1e-8L955.89717333 125.09234569 586.04758914 125.09234569l0-74.04758917zM734.01331358 642.90765431L956.02662717 642.90765431l0 74.04758916L734.01331358 716.95524347 734.01331358 642.90765431z"  horiz-adv-x="1024" />

    
    <glyph glyph-name="bcsz_icon-copy-copy-copy-copy" unicode="&#59535;" d="M304.58562808-9.961635279999996v470.16280131h851.78844642v247.90402182c0 47.01628061-36.63606304 84.26294147-83.04174077 84.26294145h-167.91528513v105.02337672c0 14.65442724-11.60141821 26.25584543-26.25584536 26.2558453s-26.25584543-11.60141821-26.25584546-26.2558453v-105.02337672h-313.84892938V896.78090819c0 14.65442724-11.60141821 26.25584543-26.25584543 26.25584041s-26.25584543-11.60141821-26.25584534-26.25584041v-105.0233816h-153.26085792c-46.40567788 0-83.04174085-36.63606304-83.04174082-84.26294145v-718.06681821c0-47.01628061 36.63606304-84.26294147 83.04174082-84.2629414h451.23416448v54.95409202h-451.23416448c-16.48622556 0.61060286-28.6982466 12.82262377-28.69825163 29.91944717z m0 718.06682313c0 17.09682837 12.21202102 29.30884946 28.08764879 29.30884952h153.26086288v-88.53715111h52.51168589v88.53715111h313.84893433v-88.53715111h52.51168575v88.53715111h167.91528513c16.48622556 0 28.0876488-12.21202102 28.08764886-29.30884952v-192.9499298H304.58562808v192.9499298zM499.36736138 331.97494787999995H415.10441488c-15.26502505 0-27.47704598-12.21202102-27.47704596-27.47704603s12.21202102-27.47704598 27.47704596-27.4770459h84.2629465c15.26502505 0 27.47704598 12.21202102 27.47704601 27.4770459s-12.21202102 27.47704598-27.47704601 27.47704603zM661.17663348 277.02085595000005h84.26294642c15.26502505 0 27.47704598 12.21202102 27.477046 27.4770459s-12.21202102 27.47704598-27.477046 27.47704603h-84.26294642c-15.26502505 0-27.47704598-12.21202102-27.47704602-27.47704603s12.21202102-27.47704598 27.47704602-27.47704589zM499.36736138 155.51124865999998H415.10441488c-15.26502505 0-27.47704598-12.21202102-27.47704596-27.47704606s12.21202102-27.47704598 27.47704596-27.477046h84.2629465c15.26502505 0 27.47704598 12.21202102 27.47704601 27.477046s-12.21202102 27.47704598-27.47704601 27.47704606zM765.58941229 120.70698899000001v25.64524264c-4.88480739 5.49541023-12.21202102 9.15901701-20.14983239 9.15901703h-84.26294642c-15.26502505 0-27.47704598-12.21202102-27.47704602-27.47704606s12.21202102-27.47704598 27.47704602-27.477046h84.26294642c8.54841424 0 15.8756278 3.66360672 20.76043523 9.76961478-0.61060286 3.66360672-1.22120066 7.32721359-0.61060284 10.3802176zM1055.0143047 237.94238669000003c-51.90108797 0-94.03256127-43.96327661-94.03256124-98.30676589 0-54.34349417 42.13147324-98.30676583 94.03256124-98.30676578s94.03256127 43.96327661 94.03255619 98.30676578c0 54.34349417-42.13147324 98.30676583-94.03255619 98.30676589z m0-161.19867426c-32.97245617 0-59.22830158 28.6982466-59.22830161 63.5025112s26.86644322 63.50250623 59.22830161 63.50250625c32.97245617 0 59.22830158-28.6982466 59.22829657-63.50250625 0-35.41486247-26.86644322-63.50250623-59.22829657-63.5025112zM1282.15788637 197.64272185000004h-28.08764377l-19.53923459 50.06928467 20.76043509 21.98163571c13.43322156 14.65442724 13.43322156 37.24666081 0 51.90108811l-26.86644318 28.0876488c-6.71661083 7.32721359-16.48622556 10.99082041-26.25584541 10.9908154-9.76961478 0-19.53923461-4.27420955-25.6452426-10.9908154l-19.53923458-20.76043521-46.4056778 20.14983239v30.53005006c0 20.7604353-16.48622556 37.24666081-36.02546528 37.24666572h-37.85726364c-20.14983239 0-36.63606304-16.48622556-36.63606297-37.24666572v-30.53005006l-46.4056779-20.14983239-19.53922952 20.76043521c-6.71661083 7.32721359-16.48622556 11.60141821-26.2558454 11.60141818-9.76961478 0-19.53923461-4.27420955-25.64524265-10.99082041l-26.86644816-28.69824657c-13.43322156-14.65442724-13.43322156-37.24666081 0-51.90108811l20.14983232-21.37103796-19.53922954-50.06928458h-28.08764882c-20.14983239 0-36.02546019-16.48622556-36.02546024-37.24666078v-39.07846937c-0.61060286-20.7604353 15.8756278-37.24666081 36.02546024-37.85726356h28.69824657l15.87562784-39.68906691 6.10601297-8.54841428-22.59223856-23.81343927c-13.43322156-14.65442724-13.43322156-37.24666081 0.61059775-51.90108797l26.86644826-28.08764884c6.71661083-7.32721359 16.48622556-11.60141821 26.25584537-11.60141821 9.76961478 0 19.53923461 4.27420955 25.64524259 10.99081543l19.53923461 20.7604352 46.40567785-20.14983242v-30.53005001c0-20.14983239 15.8756278-37.24666081 36.02546025-37.85726356h38.46786642c20.14983239 0 36.02546019 16.48622556 36.02546016 37.24666082v30.53004997l46.40567789 20.14983745 19.5392346-20.76043526c6.71661083-7.32721359 16.48622556-10.99082041 26.25584545-10.99082042 9.76961478 0 19.53923461 4.27420955 25.64524259 10.99082042l26.86644318 28.69824662c13.43322156 14.65442724 13.43322156 37.24666081 0 51.90108805l-20.14983242 21.371038 19.53923462 50.67988743h28.08764382c20.14983239 0 36.02546019 16.48622556 36.02546524 37.24666077v40.29966992c-1.83180337 19.53923461-17.70743124 36.63606304-37.85726865 36.63606294z m1.83180341-79.98873682h-25.64524266c-17.70743124-1.22120066-33.58305899-12.82262377-39.07846419-29.91945223l-12.82262375-32.36185338c-7.32721359-17.09682837-4.27420955-36.02546019 6.71661071-49.45868684l18.92863186-20.14983241-29.91944724-31.1406529-17.70743119 18.31802904c-12.82262377 12.82262377-32.97245617 15.8756278-49.45868175 7.93781643l-31.14065786-13.43322156c-17.09682837-6.71661083-28.0876488-23.20284141-28.69824666-41.52087048v-26.86644825h-40.91026765V-74.07473930000003c-0.61060286 18.31802903-11.60141821 34.19365682-28.69825155 40.91026763l-31.14065288 13.43322162c-17.09682837 7.93781134-36.63606304 4.88480739-49.45868178-7.93781142l-17.70743119-18.31803402-29.91945225 31.14065278 18.92863177 20.14983748c11.60141821 13.43322156 14.04382442 32.97245617 7.32721364 49.4586818l-12.82261874 32.97245624c-6.10600802 17.70743124-21.37103798 29.30884946-39.68906709 30.53005005h-25.64524762v45.18447717h25.64524762c17.70743124 1.22120066 33.58305899 12.82262377 39.68906709 29.91945222l12.82261874 32.36185334c7.32721359 17.09682837 4.27420955 36.63606304-7.32721364 50.06928465l-18.92863177 19.53923465 29.91945225 31.14065284 17.70743119-18.31802901c12.82262377-12.82262377 32.36185333-15.8756278 48.84808412-7.93781646l31.14065273 13.43322665c17.09682837 6.71661083 28.0876488 23.20284141 28.69824662 41.52087049v26.86644318h40.91026759v-26.86644318c0-18.31802903 12.21202102-36.02546019 28.69825167-42.13147328h0.61059779l30.53005498-13.43322155c15.8756278-7.93781134 37.24666081-4.27420955 50.06928463 8.54841415l17.09682836 17.70742616 29.91945229-31.14065281-18.92863178-20.14983237c-11.60141821-13.43322156-14.04382442-32.36185333-7.32721367-48.84808411l12.8226239-32.97245618c5.49541023-17.09682837 23.20284141-30.53004992 40.91026756-30.53005h24.42404197v-44.57387438z"  horiz-adv-x="1559" />

    
    <glyph glyph-name="wdkq_icon-copy" unicode="&#59536;" d="M420.76933294 67.02125957999999c5.90327123-6.43993382 18.24647633-9.65990075 25.75973095-9.65990075s17.70981363 3.75662948 23.07642664 9.65990075l293.5536036 304.8234878c4.29328775 4.29328775 6.43993382 10.19655897 6.43993384 16.63649282 0 6.43993382-2.6833043 11.80654238-6.97659202 16.09983013-9.12323809 9.12323809-24.14974745 8.58657549-32.7363274-0.53666263l-284.43036547-295.1635826-147.04513087 161.53497762c-4.29328775 4.8299504-9.65990075 7.5132547-16.09983462 7.51325463h-1.07332079c-5.90327123 0-11.26988417-2.14664609-15.56317203-5.90327113-9.65990075-8.58657549-10.19655897-23.07642665-1.60998345-32.736323l156.70503162-172.26820364zM929.52402656 736.2376098899999h-149.19177697v116.45545408c0 12.87986769-10.19655897 23.07642665-23.07642665 23.07642218s-23.07642665-10.19655897-23.07642664-23.07642218v-116.45545408h-441.67205527v115.91879145c0 12.87986769-10.19655897 23.07642665-23.07642674 23.07642663s-23.07642665-10.19655897-23.0764266-23.07642663v-115.91879145h-147.04513091c-33.27298555 0-60.64269998-27.36971437-60.64270439-60.64269996v-690.14613087c0-33.27298555 27.36971437-60.64269998 60.64270439-60.64269992h830.21466978c33.27298555 0 60.64269998 27.36971437 60.64269998 60.64269992V675.59490993c0 33.80964825-26.83305169 60.64269998-60.64269998 60.64269996z m14.4898467-750.78883083c0-8.0499173-6.43993382-14.48984668-14.4898467-14.48985113H99.30935678c-8.0499173 0-14.48984668 6.43993382-14.48985112 14.48985113v496.41148407h859.1943676v-496.41148407z m0 542.5643374H84.81950566v147.58179347c0 8.0499173 6.43993382 14.48984668 14.48985112 14.48984669h830.21466978c8.0499173 0 14.48984668-6.43993382 14.4898467-14.48984669v-147.58179347z"  horiz-adv-x="1024" />

    
    <glyph glyph-name="jbdj_icon-copy" unicode="&#59537;" d="M139.54131995 16.88587960999996V790.82269305c0 22.32509927 17.74559231 40.07069161 40.07069155 40.07069628H804.14238352c22.32509927 0 40.07069161-17.74559231 40.07069624-40.07069628v-326.86236458h51.51946126v326.86236458c0 50.37458575-41.21557182 91.59015756-91.5901575 91.59015756H179.6120115c-50.37458575 0-91.59015756-41.21557182-91.5901528-91.59015756v-773.93681344c0-50.37458575 41.21557182-91.59015756 91.5901528-91.59015287H472.12807185v51.51946127h-292.51606035c-21.75266382 0-40.07069161 18.31803245-40.07069155 40.0706916zM727.4356318 724.99227087h-479.70344225c-14.31096098 0-25.75973061-11.44876971-25.75973069-25.75973068s11.44876971-25.75973061 25.75973069-25.75973061h479.70344225c14.31096098 0 25.75973061 11.44876971 25.75973052 25.75973061s-11.44876971 25.75973061-25.75973052 25.75973068zM727.4356318 591.0416659h-479.70344225c-14.31096098 0-25.75973061-11.44876971-25.75973069-25.75973065s11.44876971-25.75973061 25.75973069-25.75973064h479.70344225c14.31096098 0 25.75973061 11.44876971 25.75973052 25.75973064s-11.44876971 25.75973061-25.75973052 25.75973065zM221.97245886 430.75889486c0-14.31096098 11.44876971-25.75973061 25.75973069-25.7597306h196.34639579c14.31096098 0 25.75973061 11.44876971 25.75973057 25.7597306s-11.44876971 25.75973061-25.75973057 25.75973072h-196.34639579c-14.31096098 0-25.75973061-11.44876971-25.75973069-25.75973072zM331.88064427 145.68453748000002h-84.14845472c-14.31096098 0-25.75973061-11.44876971-25.75973069-25.75973063s11.44876971-25.75973061 25.75973069-25.75973062h84.14845472c14.31096098 0 25.75973061 11.44876971 25.75973527 25.75973062s-11.44876971 25.75973061-25.75973527 25.75973063zM703.39321671 224.10860498c-1.71731566-19.46290809-3.4346313-36.0636248-5.15194699-49.80214551-1.71731566-13.73852554-4.57950693-31.4841178-8.58657845-52.66433694l-3.43463136-16.60071673c-1.71731566-13.16608539 1.71731566-22.32509927 10.3038941-26.90461086 4.00707145-2.28975583 8.58657845-2.28975583 14.31096091-1.14487555s10.30389413 7.44169813 13.73852088 18.89047256c2.86219125 10.87632957 6.29682265 27.47704637 9.15901853 50.37458099 3.4346313 22.89753935 5.15194709 40.64313172 6.29682267 52.66434155 1.14487562 12.02120978 3.4346313 41.78800723 6.8692627 88.72796156 1.14487562 18.31803245 1.71731566 31.4841178 1.14487561 40.07069624-0.57244018 9.15901386-2.86219125 15.45583646-6.29682262 19.4629081-3.4346313 4.00707145-8.58657845 5.72438252-15.45584123 5.72438246h-1.14487551c-8.01413835 0-13.73852554-6.29682265-16.0282767-17.74559233-1.14487562-6.29682265-1.71731566-14.88340106-1.71731567-26.90460613 0-11.44876971 0-24.04241494-0.57244016-36.63606498-0.57244018-12.02120978-1.71731566-28.04948641-3.43462671-47.51239443zM990.75732528-44.36503569000001c-1.14487562 6.29682265-4.00707145 10.87632957-8.01413832 14.31096101-4.00707145 3.4346313-8.58657845 5.15194709-13.73852077 5.15194704h-50.94702585v156.27570421h32.62899341c6.29682265 0 12.02120978 2.86219125 16.60071666 8.01413833 4.57950693 5.15194709 6.29682265 10.87632957 5.1519471 17.17315219-1.14487562 5.72438252-3.4346313 10.30389413-8.01413831 14.31096088-4.00707145 3.4346313-8.58657845 5.15194709-13.73852545 5.15194711h-32.62899341v142.53717874h42.93288751c5.72438252 0 10.87632957 2.28975583 14.88340104 6.86926272 4.00707145 4.57950693 6.29682265 9.73145396 5.72438257 15.45584118-0.57244018 5.72438252-2.86219125 10.87632957-6.86926279 14.31096096-4.00707145 3.4346313-8.58657845 5.72438252-13.73852082 5.72438245h-121.35695502c-5.72438252 0-10.87632957-2.28975583-14.88340103-6.8692627-4.00707145-4.57950693-6.29682265-9.73145396-5.7243872-15.45583654 0-5.72438252 2.28975583-10.87632957 6.29682258-14.3109609 4.00707145-3.4346313 8.58657845-5.72438252 14.31096565-5.72438717h35.49118466v-142.53717874h-33.20143349c-6.29682265 0-12.02120978-2.28975583-16.60071682-6.29682262-4.57950693-4.00707145-7.44169813-9.15901386-7.44169817-14.31096101-0.57244018-6.29682265 1.71731566-12.02120978 6.2968226-16.02827655 4.57950693-4.57950693 10.30389413-6.86926274 17.74559239-6.86926277h33.20143349v-156.27570427h-54.95409264c-6.29682265 0-11.44876971-1.71731566-16.02828133-5.151947-4.57950693-3.4346313-7.44169813-7.44169813-8.01413834-12.5936453-1.14487562-6.29682265 0.57244018-12.59364521 5.15194709-18.31803237 4.57950693-5.15194709 10.87632957-8.01413835 18.89047258-8.01413838h148.83400134c6.86926274 0 12.59364521 2.86219125 17.17315213 8.01413838 4.00707145 3.4346313 5.72438252 9.73145396 4.57950696 15.45584112zM659.8878891-6.011659740000027c14.88340106 7.44169813 24.61485509 14.31096098 30.33924224 20.60778822s9.15901386 12.02120978 9.73145406 16.02827666c1.71731566 7.44169813-0.57244018 13.16608539-6.86926274 18.3180277-7.44169813 5.72438252-15.45583646 6.29682265-24.04241494 0.57244016l-10.87633432-8.01413826c-1.71731566-1.14487562-5.15194709-2.86219125-10.30388944-6.29682265-2.28975583-1.14487562-4.57950693-2.86219125-6.29682256-4.00707149l-6.29682265-4.00706681v122.50183051h30.33923757c4.57950693 0 9.15901386 2.28975583 13.16608537 6.29682267 4.00707145 4.00707145 5.72438252 9.15901386 5.15194709 15.45584116-0.57244018 5.72438252-2.86219125 10.30389413-6.29682733 13.16608537-3.4346313 3.4346313-7.44169813 4.57950693-12.02120513 4.57950689h-30.33923757v129.94353341h40.07069159c5.15194709 0 9.73145396 2.28975583 13.73852077 6.29682274 4.00707145 4.00707145 5.72438252 9.15901386 5.15194706 15.45584118-0.57244018 5.72438252-2.86219125 10.87632957-6.29682255 14.31096096-4.00707145 4.00707145-8.01413835 5.72438252-12.59364528 5.72438245H563.71822936c-5.72438252 0-10.30389413-2.28975583-14.88340112-6.29682263-4.00707145-4.00707145-6.29682265-9.15901386-6.29682266-14.31096095 0-5.72438252 1.71731566-10.87632957 5.72438253-15.45584119 4.00707145-4.00707145 9.15901386-6.29682265 14.88340109-6.29682254h32.05655327v-129.94353348h-27.47704629c-6.29682265 0-11.44876971-2.28975583-15.45583652-6.29682256-4.00707145-4.00707145-5.72438252-9.15901386-5.72438723-14.31096101 0-5.15194709 2.28975583-9.73145396 6.29682269-13.73852081 4.00707145-3.4346313 8.58657845-5.15194709 14.3109656-5.151947h27.47704633v-141.96474332l-10.87633429-4.57950697c-1.14487562-0.57244018-4.57950693-1.71731566-15.45583653-4.57950694-9.15901386-2.28975583-14.31096098-4.00707145-17.17315686-5.15194707-2.28975583-1.14487562-5.72438252-2.28975583-9.73145395-4.57950686-4.57950693-2.28975583-7.44169813-6.86926274-8.58657374-13.73852559-0.57244018-4.00707145 0-8.58657845 2.2897511-14.3109609s9.73145396-8.58657845 21.18022366-8.58657846c8.58657845 0 24.04241494 5.15194709 46.93995439 14.88340109 24.04241494 11.44876971 42.36044738 20.03534811 56.67140827 27.47704632zM777.81021742-7.7289753600000495c11.44876971 18.89046787 18.89046787 37.78094047 22.89753942 57.24384836 3.4346313 18.89046787 5.72438252 44.07776307 6.29682268 74.9894408 0.57244018 30.3392375 0.57244018 63.54067111 0.57243538 98.45941558l-0.57243538 121.92939519c0 10.87632957-2.86219125 24.61485509-14.88340113 25.75973058h-1.71731572c-1.14487562 0-3.4346313 0-6.86926279-0.57243535-5.15194709-0.57244018-8.58657845-1.71731566-11.44876969-4.00707158-2.86219125-2.28975583-4.57950693-6.86926274-5.15194701-13.16608537-1.14487562-6.29682265-1.14487562-16.0282766-0.57243548-30.3392376s0.57244018-36.0636248 0-65.83042688-1.14487562-63.54067111-0.57244013-100.7491714c0.57244018-36.63606015 0-62.96823094-1.71731562-78.42406751-1.14487562-14.88340106-5.72438252-31.4841178-13.73852081-50.37458567-7.44169813-18.31803245-20.03534811-32.05655327-36.06362475-41.78800725-16.60071679-9.73145396-30.3392375-16.0282766-40.64313176-20.0353482-11.44876971-4.00707145-18.31803245-7.44169813-21.18022369-10.8763295-3.4346313-3.4346313-5.15194709-7.44169813-5.7243872-11.4487697-0.57244018-2.86219125 0.57244018-6.86926274 2.28975585-12.02120989 2.28975583-5.72438252 8.01413835-8.58657845 17.17315212-9.73145401h2.86219601c6.29682265 0 14.88340106 2.28975583 26.90460616 7.4417029 13.16608539 5.72438252 27.47704637 13.16608539 42.3604474 21.75265912 14.31096098 9.15901386 28.04948641 22.89753935 39.49825614 41.78800738z"  horiz-adv-x="1024" />

    
    <glyph glyph-name="kqsj_icon-copy" unicode="&#59538;" d="M913.99604163 877.52699057c-12.59364521 4.57950693-28.04948641 4.57950693-41.78800728 4.00707142h-641.13108869c-8.01413835 0-14.88340106-2.86219125-19.46290808-8.01413826-4.00707145-5.15194709-6.86926274-12.02120978-6.86926272-18.89047265 0-13.16608539 8.01413835-26.90460619 26.3321708-26.90460614h588.4667472c5.15194709 0 10.87632957 0 17.17315696 0.57244013 28.04948641 1.14487562 62.96823094 2.86219125 80.71382325-14.31096562 7.44169813-6.86926274 10.87632957-16.60071679 10.87632953-29.19436205v-587.3218717c0-19.46290809 0-37.78094047-17.17315216-50.94702109-11.44876971-8.58657845-25.18729052-8.58657845-38.92581609-8.01413832H211.61403758c-9.73145396 0-20.03534811-0.57244018-30.91167763-1.14488022-26.33217075-1.14487562-53.23677697-2.86219125-76.70675655 3.43463131-34.3463091 8.58657845-31.4841178 60.10603973-29.76679733 93.8799087 0.57244018 6.29682265 0.57244018 13.16608539 0.57243537 18.31803243v532.36777902c0 20.03534811-17.17315222 25.75973061-26.90460617 25.75973066-10.30389413 0-26.90460619-5.15194709-26.90460618-25.75973066v-579.30773334c0-15.45583646 0-30.3392375 2.28975108-45.79507874 6.86926274-46.93995429 54.9540926-75.56187618 95.59722443-75.56187626h356.05673128V-78.44525779000003h-314.26871937c-17.74559231 0-26.33217075-14.31096098-26.33217072-26.90460619 0-13.16608539 8.01413835-26.90460619 26.33217072-26.90461092h682.91909606c17.74559231 0 26.33217075 14.31096098 26.33216598 26.90461092 0 13.16608539-8.01413835 26.90460619-26.33216598 26.90460619h-314.26872413v163.14496698h349.75990877c63.54067111 0 104.18380283 42.93288752 104.18380275 109.90818532V781.92976617c-1.14487562 44.07776307-26.33217075 79.5689477-69.26505833 95.5972244zM272.8649529 272.45952657c13.16608539 0 26.90460619 8.01413835 26.90461092 26.33217075v223.25100195c0 20.03534811-17.17315222 25.75973061-26.90461092 25.75973062s-26.90460619-5.15194709-26.9046062-25.75973062v-223.25100195c0-17.74559231 14.31096098-26.33217075 26.9046062-26.33217075zM623.76973726 298.79169732v223.25100195c0 20.03534811-17.17315222 25.75973061-26.9046062 25.75973062-10.30389413 0-26.90460619-5.15194709-26.90461094-25.75973062v-223.25100195c0-17.74559231 13.73852554-26.33217075 26.90461094-26.33217075s26.90460619 8.58657845 26.9046062 26.33217075zM770.31398746 298.79169732v223.25100195c0 20.03534811-17.17315222 25.75973061-26.90461091 25.75973062-10.30389413 0-26.90460619-5.15194709-26.90460622-25.75973062v-223.25100195c0-17.74559231 13.73852554-26.33217075 26.90460622-26.33217075s26.90460619 8.58657845 26.90461091 26.33217075zM445.74137385 272.45952657c13.16608539 0 26.90460619 8.01413835 26.90460619 26.33217075v346.89771279c0 20.03534811-17.17315222 25.75973061-26.90460619 25.75973062s-26.90460619-5.15194709-26.90461085-25.75973062v-346.89771279c0-17.74559231 14.31096098-26.33217075 26.90461085-26.33217075z"  horiz-adv-x="1024" />

    
    <glyph glyph-name="kqy_icon-copy" unicode="&#59539;" d="M910.01174243 98.58237179000002l5.36661297 8.04991733c18.78313885 26.83305169 28.44303516 57.42273307 28.44303529 90.69571874 0 21.46644314-4.29328775 42.39622373-12.87986772 62.25268342-8.58657549 19.85645974-19.85645974 37.02961515-33.80964382 50.98280359-14.48984668 14.48984668-31.66300212 25.75973097-50.98280359 34.34630642-19.85645974 8.58657549-40.78624032 12.34320505-62.25268353 12.34320512s-42.39622373-4.29328775-62.25268341-12.34320512c-19.85645974-8.58657549-37.02961515-19.85645974-50.98280359-33.80964822-14.48984668-14.48984668-25.75973097-31.66300212-34.34630652-50.98279915-8.58657549-19.85645974-12.87986769-40.78624032-12.87986319-62.25268346s4.29328775-42.39622373 12.87986319-62.25268352c8.58657549-19.85645974 19.85645974-37.02961515 33.80964825-50.98280359 14.48984668-14.48984668 31.66300212-25.75973097 50.98279922-33.8096482 19.85645974-8.58657549 40.78624032-12.87986769 62.25268346-12.87986331 33.27298555 0 63.8626669 9.65990075 90.69572316 28.44303523l8.04991279 5.36661298 90.15906047-90.15906049c3.75662948-4.29328775 8.0499173-5.90327123 13.95318854-5.90327109 5.36660861 0 9.65990075 2.14664609 13.9531885 5.90327109 4.29328775 4.29328775 5.90327123 8.58657549 5.90327116 13.95318859 0 5.90327123-1.60998343 10.19655897-5.36660855 13.95318407l-90.69572308 89.08573957z m-41.3229029 13.41652598c-23.61308486-23.61308486-52.05612443-35.41963169-85.32911009-35.41963168-33.27298555 0-61.71602087 11.80654238-85.32910998 35.41963168-23.61308486 23.61308486-35.41963169 52.05612443-35.41962733 85.32911009s11.80654238 61.71602087 35.41962733 85.32911002c23.61308486 23.61308486 52.05612443 35.41963169 85.32910998 35.41963167s61.71602087-11.80654238 85.32911009-35.41963167c23.61308486-23.61308486 35.41963169-52.05612443 35.41963171-85.32911002s-11.80654238-61.71602087-35.41963171-85.32911009zM91.06695248 27.743108399999983c4.29328775 94.45234818 48.29949492 121.28539994 138.99521796 142.7518477 120.74874175 28.97969781 175.48817056 98.745636 181.39144183 106.25889051 13.41652592 18.24647633 13.41652592 41.32290288 13.41652581 60.10603744 0 8.0499173-2.6833043 15.02650931-4.8299504 22.00310582-0.53666267 1.60998343-1.60998343 3.75662948-2.14664167 5.90327121l-4.29329212 9.12323807c-4.29328775 12.87986769-16.09983021 38.63959858-24.14974744 54.73942875l-0.53665827 1.6099835c-3.75662948 11.26988417-13.41652592 22.0031058-17.17315538 25.75973094l-1.60998348 1.6099835-1.60998343 1.07332077c-8.58657549 5.90327123-18.24647633 13.41652592-28.44303526 28.44303528l-0.53666261 0.53666259c-16.63649279 30.05301869-7.5132547 54.20276615 5.90327123 65.47265039l6.97659642 5.90327122v19.3198015l-1.60998338 3.75662506c-12.34320505 31.12634397-17.17315542 69.7659381-14.48985115 115.38212884 2.14664609 40.24958205 39.17625678 117.52877485 161.53498201 117.52877482 113.77214531 0 158.85167774-70.30260075 161.53498206-117.52877482 2.6833043-45.07952807-2.14664609-84.25578927-14.48985112-119.1387539l-1.07332085-3.21996697v-20.39312232l8.58657544-5.9032712c14.48984668-10.7332216 22.0031058-33.27298555 5.36661303-59.56937916l-1.07332084-1.0733208c-13.41652592-16.09983021-22.0031058-24.68641008-28.97969781-29.51636053l-1.60998349-1.07332077-1.60998344-1.6099835c-3.21996684-3.21996684-13.41652592-13.95318849-17.17315545-25.75973094l-0.53666258-1.6099835c-6.43993382-12.87986769-12.87986769-29.51636044-18.24647628-41.32290287l-1.07332084-3.21996688c-2.14664609-4.8299504-3.75662948-8.58657549-4.29328773-10.196559l-3.21996688-6.43993382c-3.75662948-7.5132547-8.58657549-20.39312233-8.58657562-31.1263395 0-13.95318849 9.12323809-30.58968137 20.92978055-47.76283675l31.66300221 41.32290289c-5.90327123 4.29328775-11.26988417 10.7332216-7.51325473 19.31979714l3.21996696 6.43993379c1.07332089 2.14664609 4.29328775 9.65990075 6.43993383 15.56317198 4.8299504 11.80654238 12.34320505 29.51636044 18.24647616 41.85956111l2.1466418 4.29328777v1.07332526l2.14664608 3.21996689c0.53666267 1.07332089 1.60998343 1.60998343 2.14664602 2.68330424l1.07332089 1.07332088 1.07332083 0.53666265c10.19655897 7.5132547 19.85645974 17.70981363 35.95628987 36.49295247l1.60998346 2.14664171c27.36971437 41.85956109 17.70981363 81.03582231-0.53665817 103.5755863l-3.75662957 4.82995036 1.60998348 5.90327126c10.7332216 36.49295252 15.02650931 76.20587194 12.34320498 120.74874173-3.75662948 62.78934604-60.64269998 156.16836902-202.85788489 156.16836907-133.09194679 0-198.56459277-81.03582231-202.85788048-156.16836907-2.6833043-45.07952807 1.60998343-85.32911007 12.34320503-119.13875832l1.60998346-5.36660857-3.21996696-4.82995037c-22.0031058-29.51636044-22.53976401-68.69261728-1.60998346-104.64890714l1.07332093-1.07332525c13.41652592-20.39312233 27.36971437-31.66300212 37.02961514-38.10293599l1.0733208-1.07332084 1.07332077-1.07332088c0.53666267-1.07332089 1.60998343-1.60998343 2.14664611-2.68330424l1.07332088-1.60998343 3.21996684-6.97659649c9.65990075-18.78313885 20.92978057-45.07952807 23.61308932-53.66610795l4.29328774-9.12323813 1.6099835-4.82994594 1.07332077-2.1466461 1.60998348-4.82995038 0.53666262-1.60998344v-1.60998346c0-20.39312233-1.60998343-28.97969781-5.366613-34.34630649-2.14664609-2.6833043-50.98279924-65.47265035-157.77835244-90.69571856-124.50536687-29.51636044-170.65822013-83.71912663-170.65822017-199.63791812 0-17.17315542 15.56317199-36.49295252 35.95628986-36.49295251h605.35368343v40.78624027H90.53029421l0.53665827 12.87986322z"  horiz-adv-x="1024" />

    
    </font>
</defs>
</svg>
